<svg width="1920" height="190" fill="none" xmlns="http://www.w3.org/2000/svg"><path fill-rule="evenodd" clip-rule="evenodd" d="M.045 110.889V26.812a4308.241 4308.241 0 01123.528 19.286c451.34 77.101 837.564 37.097 1042.807 18.87 4.06-.361 8.04-.715 11.94-1.06 37.47-3.32 86.12-8.185 142.4-13.812C1485.05 33.664 1714.39 10.73 1920 .809v112.168c-142.6 6.833-309.75-3.55-442.39-13.843-199.53-15.484-327.11 10.035-468.09 38.232-97.033 19.408-200.41 40.085-337.956 49.534-160.731 11.041-298.989-15.889-426.831-40.791-84.985-16.553-165.367-32.21-244.688-35.22z" fill="#FDAA08"/></svg>