<svg width="74" height="73" fill="none" xmlns="http://www.w3.org/2000/svg"><path d="M53.753 65.396v6.083H20.294v-6.083H53.753z" fill="#D0D7DF"/><path d="M46.148 56.27l3.042 9.126H24.857l3.041-9.125h18.25z" fill="#A4B0C0"/><path d="M72.003 6.083v38.021H2.044V6.084A4.562 4.562 0 016.607 1.52H67.44a4.562 4.562 0 014.563 4.562z" fill="#00CBA9"/><path d="M72.003 44.104v7.604a4.562 4.562 0 01-4.563 4.563H6.607a4.562 4.562 0 01-4.563-4.563v-7.604h69.959z" fill="#D0D7DF"/><path d="M52.232 41.063c10.919 0 19.77-8.852 19.77-19.771 0-10.92-8.851-19.771-19.77-19.771-10.92 0-19.771 8.852-19.771 19.77 0 10.92 8.852 19.771 19.77 19.771z" fill="#FED049"/><path d="M40.065 44.104a1.52 1.52 0 00-1.52-1.52H9.647a1.52 1.52 0 100 3.041h28.896a1.52 1.52 0 001.521-1.52z" fill="#474C54"/><path d="M72.003 38.02a1.521 1.521 0 00-1.521 1.522v12.166a3.042 3.042 0 01-3.042 3.042H33.982a1.52 1.52 0 100 3.042h11.071l2.695 8.084a1.521 1.521 0 001.442 1.04h3.042v3.042H21.815v-3.041h3.042a1.522 1.522 0 001.442-1.04l3.041-9.126a1.521 1.521 0 00-1.442-2.001H6.607a3.042 3.042 0 01-3.042-3.042V6.083a3.042 3.042 0 013.042-3.041h27.375a1.52 1.52 0 000-3.042H6.607A6.083 6.083 0 00.523 6.083v45.625a6.083 6.083 0 006.084 6.084h19.18l-2.027 6.083h-3.466a1.52 1.52 0 00-1.52 1.52v4.563h-1.521a1.521 1.521 0 000 3.042h39.541a1.52 1.52 0 100-3.042h-1.52v-4.562a1.521 1.521 0 00-1.521-1.521h-3.466l-2.028-6.083H67.44a6.084 6.084 0 006.083-6.084V39.542a1.52 1.52 0 00-1.52-1.521z" fill="#474C54"/><path d="M30.94 66.917h12.167a1.521 1.521 0 000-3.042H30.94a1.52 1.52 0 100 3.042zM52.232 42.583A21.292 21.292 0 1030.94 21.292a21.315 21.315 0 0021.292 21.291zm0-39.541a18.25 18.25 0 11-18.25 18.25 18.27 18.27 0 0118.25-18.25z" fill="#474C54"/><path d="M49.19 31.938h1.52v1.52a1.52 1.52 0 003.043 0v-1.52h1.52a4.563 4.563 0 004.563-4.563v-3.042a4.563 4.563 0 00-4.563-4.562H49.19a1.52 1.52 0 01-1.52-1.521v-3.042a1.52 1.52 0 011.52-1.52h6.083a1.52 1.52 0 011.521 1.52v1.521a1.52 1.52 0 103.042 0v-1.52a4.563 4.563 0 00-4.563-4.563h-1.52V9.125a1.52 1.52 0 10-3.042 0v1.52h-1.52a4.562 4.562 0 00-4.563 4.563v3.042a4.563 4.563 0 004.562 4.563h6.083a1.52 1.52 0 011.521 1.52v3.042a1.52 1.52 0 01-1.52 1.52H49.19a1.52 1.52 0 01-1.52-1.52v-1.52a1.52 1.52 0 00-3.042 0v1.52a4.563 4.563 0 004.562 4.563z" fill="#474C54"/></svg>