<svg width="60" height="43" fill="none" xmlns="http://www.w3.org/2000/svg"><path d="M51 18.245c4.125 0 7.5-3.28 7.5-7.5 0-4.125-3.375-7.5-7.5-7.5-4.219 0-7.5 3.375-7.5 7.5 0 4.22 3.281 7.5 7.5 7.5zm0-12c2.438 0 4.5 2.063 4.5 4.5 0 2.532-2.063 4.5-4.5 4.5-2.531 0-4.5-1.968-4.5-4.5 0-2.437 1.969-4.5 4.5-4.5zm-21 15c5.719 0 10.5-4.687 10.5-10.5 0-5.718-4.781-10.5-10.5-10.5-5.813 0-10.5 4.782-10.5 10.5 0 5.813 4.688 10.5 10.5 10.5zm0-18c4.125 0 7.5 3.375 7.5 7.5 0 4.22-3.375 7.5-7.5 7.5-4.219 0-7.5-3.28-7.5-7.5 0-4.125 3.281-7.5 7.5-7.5zm22.875 18h-3.75c-1.5 0-2.813.47-3.938 1.22a13.388 13.388 0 012.438 2.155c.469-.187.938-.375 1.5-.375h3.75c2.25 0 4.125 2.063 4.125 4.5 0 .844.656 1.5 1.5 1.5.75 0 1.5-.656 1.5-1.5 0-4.125-3.281-7.5-7.125-7.5zM9 18.245c4.125 0 7.5-3.28 7.5-7.5 0-4.125-3.375-7.5-7.5-7.5-4.219 0-7.5 3.375-7.5 7.5 0 4.22 3.281 7.5 7.5 7.5zm0-12c2.438 0 4.5 2.063 4.5 4.5 0 2.532-2.063 4.5-4.5 4.5-2.531 0-4.5-1.968-4.5-4.5 0-2.437 1.969-4.5 4.5-4.5zM37.5 23.12c-3.188 0-3.938 1.125-7.5 1.125-3.656 0-4.406-1.125-7.594-1.125-3.375 0-6.656 1.594-8.625 4.407A11.31 11.31 0 0012 33.62v4.125c0 2.532 1.969 4.5 4.5 4.5h27c2.438 0 4.5-1.968 4.5-4.5V33.62c0-2.25-.75-4.312-1.875-6.093-1.969-2.813-5.25-4.407-8.625-4.407zM45 37.745c0 .844-.75 1.5-1.5 1.5h-27a1.48 1.48 0 01-1.5-1.5V33.62c0-1.593.375-3.093 1.313-4.406 1.218-1.875 3.562-3.094 6.093-3.094 2.625 0 3.563 1.125 7.594 1.125 4.031 0 4.875-1.125 7.5-1.125 2.531 0 4.875 1.22 6.094 3.094.937 1.313 1.312 2.813 1.312 4.406v4.125H45zm-30.281-15.28c-1.125-.75-2.438-1.22-3.844-1.22h-3.75C3.187 21.245 0 24.62 0 28.745c0 .844.656 1.5 1.5 1.5.75 0 1.5-.656 1.5-1.5 0-2.437 1.781-4.5 4.125-4.5h3.75c.469 0 .938.188 1.406.375.75-.843 1.5-1.5 2.438-2.156z" fill="#FDAA08"/></svg>