<svg width="59" height="59" fill="none" xmlns="http://www.w3.org/2000/svg"><path d="M29.677 56.875c15.35 0 27.794-12.444 27.794-27.795 0-15.35-12.444-27.795-27.794-27.795S1.882 13.73 1.882 29.08c0 15.35 12.444 27.795 27.795 27.795z" fill="#D0D7DF"/><path d="M29.677 49.624c11.346 0 20.544-9.198 20.544-20.544S41.023 8.536 29.677 8.536 9.133 17.734 9.133 29.08s9.198 20.544 20.544 20.544z" fill="#F1F2F2"/><path d="M32.094 32.706c4.676 0 8.459-1.62 8.459-3.626v6.042c0 2.006-3.783 3.626-8.46 3.626-4.676 0-8.459-1.62-8.459-3.626V29.08c0 2.006 3.783 3.626 8.46 3.626zM57.471 47.207v6.042c0 2.006-3.782 3.626-8.459 3.626s-8.46-1.62-8.46-3.626v-6.042c0 2.006 3.783 3.625 8.46 3.625 4.677 0 8.46-1.619 8.46-3.625zM49.012 44.79c4.672 0 8.46-1.623 8.46-3.625 0-2.003-3.788-3.626-8.46-3.626-4.672 0-8.46 1.623-8.46 3.626 0 2.002 3.788 3.625 8.46 3.625z" fill="#FED049"/><path d="M40.553 41.165v6.042c0 2.006-3.783 3.626-8.46 3.626-4.676 0-8.459-1.62-8.459-3.626v-6.042c0 2.006 3.783 3.625 8.46 3.625 4.676 0 8.459-1.62 8.459-3.625z" fill="#FED049"/><path d="M32.094 32.706c4.672 0 8.459-1.624 8.459-3.626s-3.787-3.625-8.46-3.625c-4.671 0-8.459 1.623-8.459 3.625 0 2.003 3.788 3.626 8.46 3.626zM40.553 35.123v6.042c0 2.006-3.783 3.625-8.46 3.625-4.676 0-8.459-1.62-8.459-3.625v-6.042c0 2.006 3.783 3.625 8.46 3.625 4.676 0 8.459-1.62 8.459-3.625z" fill="#F6B445"/><path d="M49.012 44.79c4.677 0 8.46-1.62 8.46-3.625v6.042c0 2.006-3.783 3.626-8.46 3.626-4.677 0-8.46-1.62-8.46-3.626v-6.042c0 2.006 3.783 3.625 8.46 3.625z" fill="#F6B445"/><path d="M40.553 47.207v6.042c0 2.006-3.783 3.626-8.46 3.626-4.676 0-8.459-1.62-8.459-3.626v-6.042c0 2.006 3.783 3.625 8.46 3.625 4.676 0 8.459-1.619 8.459-3.625z" fill="#F6B445"/><path d="M16.54 52.2a26.587 26.587 0 1139.723-23.12 1.208 1.208 0 102.417 0A29.003 29.003 0 1015.344 54.3a1.209 1.209 0 101.196-2.1z" fill="#474C54"/><path d="M10.341 29.08a19.336 19.336 0 0138.671 0 1.208 1.208 0 102.417 0 21.751 21.751 0 10-35.77 16.633 1.209 1.209 0 101.557-1.846 19.31 19.31 0 01-6.875-14.787z" fill="#474C54"/><path d="M49.012 36.331a15.93 15.93 0 00-7.25 1.532V29.08c0-3.173-4.864-4.834-9.668-4.834-4.805 0-9.668 1.66-9.668 4.834v24.17c0 3.173 4.863 4.833 9.668 4.833 3.348 0 6.72-.808 8.459-2.372 1.739 1.564 5.11 2.372 8.46 2.372 4.804 0 9.667-1.66 9.667-4.834V41.165c0-3.174-4.863-4.834-9.668-4.834zm7.25 10.876c0 .846-2.752 2.417-7.25 2.417s-7.25-1.57-7.25-2.417v-2.74a15.93 15.93 0 007.25 1.532 15.93 15.93 0 007.25-1.533v2.741zM39.345 35.123c0 .845-2.752 2.416-7.25 2.416s-7.251-1.57-7.251-2.416v-2.741a15.93 15.93 0 007.25 1.532 15.93 15.93 0 007.251-1.532v2.74zm-7.25 4.833a15.93 15.93 0 007.25-1.532v2.74c0 .847-2.752 2.418-7.25 2.418s-7.251-1.571-7.251-2.417v-2.741a15.93 15.93 0 007.25 1.532zm-7.251 4.51A15.93 15.93 0 0032.093 46a15.93 15.93 0 007.251-1.533v2.741c0 .846-2.752 2.417-7.25 2.417s-7.251-1.57-7.251-2.417v-2.74zm24.17-5.718c4.497 0 7.25 1.57 7.25 2.417 0 .846-2.753 2.417-7.25 2.417-4.499 0-7.252-1.571-7.252-2.417 0-.846 2.753-2.417 7.251-2.417zm-16.92-12.085c4.498 0 7.251 1.571 7.251 2.417 0 .846-2.752 2.417-7.25 2.417s-7.251-1.57-7.251-2.417c0-.846 2.753-2.417 7.25-2.417zm0 29.003c-4.497 0-7.25-1.57-7.25-2.417v-2.74a15.93 15.93 0 007.25 1.532 15.93 15.93 0 007.251-1.532v2.74c0 .852-2.752 2.417-7.25 2.417zm16.92 0c-4.499 0-7.252-1.57-7.252-2.417v-2.74a15.93 15.93 0 007.251 1.532 15.93 15.93 0 007.25-1.532v2.74c0 .852-2.752 2.417-7.25 2.417z" fill="#474C54"/></svg>