<svg width="43" height="43" fill="none" xmlns="http://www.w3.org/2000/svg"><path d="M21.469.038C9.621.038.022 9.638.022 21.485c0 11.848 9.6 21.448 21.447 21.448 11.848 0 21.447-9.6 21.447-21.448 0-11.847-9.6-21.447-21.447-21.447zm0 40.127a18.602 18.602 0 01-18.68-18.68c0-10.29 8.302-18.68 18.68-18.68 10.291 0 18.68 8.39 18.68 18.68 0 10.378-8.389 18.68-18.68 18.68zm3.46-19.112l-6.227-1.73a2.413 2.413 0 01-1.817-2.335c0-1.297 1.125-2.42 2.508-2.42h3.892c.951 0 1.903.345 2.595.95.345.173.691.173.95-.086l.952-1.038a.712.712 0 00-.086-1.038c-1.211-.95-2.768-1.556-4.41-1.556h-.433V8.34c0-.345-.346-.691-.692-.691h-1.384a.682.682 0 00-.692.691v3.46h-.692c-2.94 0-5.275 2.335-5.275 5.188 0 2.335 1.557 4.325 3.805 5.016l6.227 1.73a2.413 2.413 0 011.816 2.335c0 1.297-1.124 2.335-2.508 2.335h-3.892c-.95 0-1.902-.26-2.594-.865-.346-.173-.692-.173-.951.087l-.952 1.037c-.259.26-.259.779.087 1.038 1.21.951 2.767 1.47 4.41 1.47h.52v3.46c0 .432.259.691.691.691h1.384c.346 0 .692-.259.692-.691v-3.46h.605c2.94 0 5.275-2.248 5.275-5.102 0-2.335-1.556-4.41-3.805-5.016z" fill="#FDAA08"/></svg>