<svg width="55" height="51" fill="none" xmlns="http://www.w3.org/2000/svg"><path d="M53.69 10.399v35.376a3.424 3.424 0 01-3.424 3.423H4.619a3.424 3.424 0 01-3.423-3.423V10.399h52.493z" fill="#F1F2F2"/><path d="M53.69 4.693v5.706H1.195V4.693a3.423 3.423 0 013.423-3.424h45.647a3.423 3.423 0 013.423 3.424z" fill="#A4B0C0"/><path d="M50.266.128H4.619A4.565 4.565 0 00.055 4.693v41.082a4.564 4.564 0 004.564 4.564h45.647a4.564 4.564 0 004.565-4.564V4.693A4.564 4.564 0 0050.266.128zm2.282 45.647a2.282 2.282 0 01-2.282 2.282H4.619a2.282 2.282 0 01-2.282-2.282V4.693A2.282 2.282 0 014.62 2.41h45.647a2.282 2.282 0 012.282 2.283v41.082z" fill="#474C54"/><path d="M6.902 6.975h1.14a1.141 1.141 0 000-2.282h-1.14a1.141 1.141 0 000 2.282zm5.705 0h1.142a1.141 1.141 0 000-2.282h-1.142a1.141 1.141 0 000 2.282zm34.235 0h1.142a1.141 1.141 0 000-2.282h-1.142a1.141 1.141 0 000 2.282zm2.283 2.282H5.76a1.141 1.141 0 100 2.283h43.364a1.141 1.141 0 100-2.283z" fill="#474C54"/><path d="M29.325 21.739h-.056l-.115.027a3.54 3.54 0 00-1.431.716 6.093 6.093 0 00-.464.454c-.192.203-.437.467-.712.77v.002c-1.046 1.153-1.2 1.284-1.74 1.644-.454.278-.929.52-1.42.723a5.059 5.059 0 01-1.576.326l-.39.015-.964.035v4.315h1.248c.114 0 .263-.005.402-.014l3.514 3.54 3.559 3.586v1.64l.288.292 1.61 1.635.003.002 1.625 1.638.71.715.71-.715 1.632-1.645 1.632-1.644.7-.706-.701-.704-1.618-1.625-.002-.001-1.618-1.63-.293-.296h-1.632l-.253-.254.036-.032a2.55 2.55 0 00.29-.307 4.247 4.247 0 001.029-2.396c.016-.165.021-.556.024-1.107a344.474 344.474 0 00-.002-3.135c-.004-1.457-.005-2.216-.023-2.646a3.537 3.537 0 00-.067-.627c-.035-.157-.09-.298-.118-.37l-.01-.028-.005-.012-.005-.012a3.57 3.57 0 00-.992-1.382 3.545 3.545 0 00-1.52-.763l-.04-.009-.04-.006a4.55 4.55 0 00-1.205-.01z" fill="#00CBA9" stroke="#474C54" stroke-width="2"/><path d="M19.938 33.73h0l-2.443 2.46-.699.705.7.705.813.82.813.819.705.71.71-.706 1.9-1.892h0l1.61-1.603.688-.004h.001l1.1-.007 2.38-.016-1.677-1.689-1.37-1.38-1.37-1.38-.71-.715-.71.715-2.442 2.458z" fill="#00CBA9" stroke="#474C54" stroke-width="2"/><path d="M29.77 16.334a2.323 2.323 0 00-1.586 1.267c-.126.242-.196.51-.205.784a2.058 2.058 0 00.596 1.59c.466.501.946.718 1.568.727.323.014.644-.059.93-.211a2.343 2.343 0 001.214-1.477 2.225 2.225 0 00-.111-1.363 2.805 2.805 0 00-.843-.992 2.48 2.48 0 00-.646-.296 2.77 2.77 0 00-.918-.029z" fill="#00CBA9"/><path fill-rule="evenodd" clip-rule="evenodd" d="M32.287 19.014a2.364 2.364 0 01-1.215 1.477 1.795 1.795 0 01-.93.21c-.62-.008-1.101-.225-1.567-.726a2.045 2.045 0 01-.596-1.59c.009-.274.079-.542.205-.784a2.345 2.345 0 011.585-1.267 2.77 2.77 0 01.918.029c.229.067.446.167.646.296.354.26.643.6.843.992.179.431.218.908.11 1.363zm-5.892-2.307a4.345 4.345 0 011.19-1.484c.51-.408 1.172-.804 1.915-.87a4.769 4.769 0 011.58.049l.087.017.084.025c.413.121.805.301 1.167.534l.05.032.047.035a4.806 4.806 0 011.444 1.7l.034.068.03.07c.34.82.414 1.726.21 2.589l-.008.04-.011.038a4.362 4.362 0 01-2.224 2.717 3.797 3.797 0 01-1.905.434c-1.182-.024-2.152-.49-2.95-1.338a4.047 4.047 0 01-1.154-3.078c.023-.55.164-1.088.414-1.578z" fill="#474C54"/></svg>