<svg width="74" height="73" fill="none" xmlns="http://www.w3.org/2000/svg"><path d="M72.062 19.77H59.895a6.083 6.083 0 01-6.083-6.082V1.52l18.25 18.25z" fill="#F6B445"/><path d="M72.062 19.77v45.626a6.084 6.084 0 01-6.083 6.083H14.27c-6.083 0-6.083-6.083-6.083-6.083V7.604a6.083 6.083 0 016.083-6.083h39.542v12.166a6.083 6.083 0 006.083 6.084h12.167z" fill="#FED049"/><path d="M21.875 56.27h-3.042a3.042 3.042 0 00-3.042 3.042v9.126a3.042 3.042 0 003.042 3.041h3.042a3.042 3.042 0 003.041-3.041v-9.126a3.042 3.042 0 00-3.041-3.041z" fill="#00CBA9"/><path d="M20.354 47.146c10.079 0 18.25-8.171 18.25-18.25 0-10.08-8.171-18.25-18.25-18.25-10.08 0-18.25 8.17-18.25 18.25 0 10.079 8.17 18.25 18.25 18.25z" fill="#F1F2F2"/><path d="M73.137 18.696L54.887.446A1.534 1.534 0 0053.812 0H14.27a7.613 7.613 0 00-7.604 7.604 1.52 1.52 0 003.042 0 4.563 4.563 0 014.562-4.562h38.021v10.646a7.613 7.613 0 007.604 7.604h3.042a1.52 1.52 0 000-3.042h-3.042a4.563 4.563 0 01-4.562-4.563V5.193L70.54 20.401v44.995a4.563 4.563 0 01-4.562 4.562H32.52a1.52 1.52 0 100 3.042h33.46a7.614 7.614 0 007.604-7.604V19.77c0-.404-.16-.79-.446-1.075z" fill="#474C54"/><path d="M21.875 54.75v-6.16a19.771 19.771 0 10-3.042 0v6.16a4.562 4.562 0 00-4.563 4.563v9.124A4.563 4.563 0 0018.833 73h3.042a4.562 4.562 0 004.562-4.563v-9.124a4.562 4.562 0 00-4.562-4.563zM3.625 28.896a16.73 16.73 0 1116.729 16.73 16.75 16.75 0 01-16.73-16.73zm19.77 39.541a1.52 1.52 0 01-1.52 1.521h-3.042a1.52 1.52 0 01-1.52-1.52v-9.126a1.52 1.52 0 011.52-1.52h3.042a1.521 1.521 0 011.52 1.52v9.126z" fill="#474C54"/><path d="M21.875 19.77a1.521 1.521 0 00-1.521-1.52A10.658 10.658 0 009.708 28.896a1.52 1.52 0 103.042 0 7.613 7.613 0 017.604-7.604 1.52 1.52 0 001.52-1.521z" fill="#474C54"/></svg>