<svg width="59" height="59" fill="none" xmlns="http://www.w3.org/2000/svg"><path d="M42.612 52.041v4.834H16.03V52.04h26.583z" fill="#D0D7DF"/><path d="M36.57 44.791l2.417 7.25H19.654l2.416-7.25h14.5z" fill="#A4B0C0"/><path d="M57.112 4.917v30.208H1.53V4.916a3.625 3.625 0 013.625-3.625h48.333a3.625 3.625 0 013.625 3.626z" fill="#00CBA9"/><path d="M57.112 35.125v6.042a3.625 3.625 0 01-3.625 3.625H5.154a3.625 3.625 0 01-3.625-3.625v-6.042h55.583z" fill="#D0D7DF"/><path d="M41.404 17v9.667a2.424 2.424 0 01-2.417 2.416H19.654a2.424 2.424 0 01-2.417-2.416V17h24.167z" fill="#F1F2F2"/><path d="M43.82 13.375v2.416A1.208 1.208 0 0142.612 17H16.03a1.209 1.209 0 01-1.209-1.209v-2.416a1.208 1.208 0 011.209-1.209h26.583a1.208 1.208 0 011.208 1.209z" fill="#D0D7DF"/><path d="M51.07 33.916H7.57a1.208 1.208 0 100 2.417h43.5a1.208 1.208 0 100-2.416z" fill="#474C54"/><path d="M53.487.083H5.154A4.833 4.833 0 00.32 4.917v36.25A4.833 4.833 0 005.154 46h15.24l-1.611 4.833h-2.754a1.209 1.209 0 00-1.209 1.209v3.625h-1.208a1.208 1.208 0 100 2.416H45.03a1.209 1.209 0 000-2.416H43.82v-3.625a1.208 1.208 0 00-1.208-1.209h-2.754L38.248 46h15.24a4.833 4.833 0 004.832-4.833V4.917A4.833 4.833 0 0053.487.083zm2.417 41.084a2.416 2.416 0 01-2.417 2.416H26.904a1.209 1.209 0 000 2.417H35.7l2.142 6.423a1.208 1.208 0 001.145.827h2.417v2.417H17.237V53.25h2.417a1.209 1.209 0 001.145-.827l2.417-7.25a1.207 1.207 0 00-1.146-1.59H5.154a2.417 2.417 0 01-2.417-2.416V4.917A2.417 2.417 0 015.154 2.5h48.333a2.417 2.417 0 012.417 2.417v36.25z" fill="#474C54"/><path d="M23.279 52.042a1.208 1.208 0 001.208 1.208h9.667a1.208 1.208 0 000-2.417h-9.667a1.208 1.208 0 00-1.208 1.209zM16.029 18.208v8.459a3.625 3.625 0 003.625 3.624h19.333a3.625 3.625 0 003.625-3.625v-8.458a2.417 2.417 0 002.417-2.416v-2.417a2.417 2.417 0 00-2.417-2.417h-3.125L33.8 5.27a1.208 1.208 0 00-1.709 1.71l3.98 3.978h-13.5L26.55 6.98a1.208 1.208 0 10-1.709-1.708l-5.688 5.687H16.03a2.416 2.416 0 00-2.417 2.417v2.416a2.417 2.417 0 002.417 2.417zm0-4.833h26.583v2.416h-9.667a1.208 1.208 0 000 2.417h7.25v8.459a1.208 1.208 0 01-1.208 1.208H19.654a1.208 1.208 0 01-1.209-1.209v-8.458h7.25a1.208 1.208 0 100-2.416H16.03v-2.417z" fill="#474C54"/><path d="M29.32 25.458a1.208 1.208 0 001.209-1.208v-2.417a1.208 1.208 0 00-2.417 0v2.417a1.208 1.208 0 001.208 1.208zM35.362 25.458a1.208 1.208 0 001.208-1.208v-2.417a1.208 1.208 0 00-2.416 0v2.417a1.208 1.208 0 001.208 1.208zM23.279 20.625a1.209 1.209 0 00-1.209 1.208v2.417a1.208 1.208 0 102.417 0v-2.417a1.208 1.208 0 00-1.208-1.208z" fill="#474C54"/></svg>