<svg width="51" height="45" fill="none" xmlns="http://www.w3.org/2000/svg"><path d="M46.224.258H4.715C2.379.258.563 2.161.563 4.41v24.907c0 2.335 1.816 4.15 4.15 4.15h16.605l-2.075 8.303h-6.227c-.778 0-1.384.692-1.384 1.384 0 .778.606 1.383 1.384 1.383h24.906c.692 0 1.384-.605 1.384-1.383 0-.692-.692-1.384-1.384-1.384h-6.226l-2.076-8.302h16.604c2.249 0 4.152-1.816 4.152-4.151V4.409c0-2.248-1.903-4.15-4.151-4.15zM22.096 41.77l1.384-5.535h3.978l1.384 5.535h-6.746zm25.512-12.453c0 .778-.692 1.384-1.383 1.384H4.713a1.366 1.366 0 01-1.384-1.384V4.409c0-.691.605-1.383 1.384-1.383h41.51c.692 0 1.384.692 1.384 1.383v24.907z" fill="#FDAA08"/></svg>