<svg width="45" height="45" fill="none" xmlns="http://www.w3.org/2000/svg"><path d="M30.771 21.786v-1.383c0-.346-.346-.692-.692-.692H14.86a.682.682 0 00-.692.692v1.383c0 .433.26.692.692.692h15.22c.346 0 .692-.26.692-.692zM14.86 16.943h15.22a.682.682 0 00.692-.691v-1.384c0-.346-.346-.692-.692-.692H14.86a.682.682 0 00-.692.692v1.384c0 .432.26.692.692.692zm28.192-2.335c-.173-.172-1.902-1.556-3.978-3.286v-2.68c0-1.47-1.297-2.768-2.767-2.768H32.24c-.346-.26-.692-.519-.864-.692C29.474 3.712 26.186.34 22.468.34c-3.805 0-7.005 3.287-8.994 4.843-.173.173-.519.433-.865.692H8.632c-1.557 0-2.767 1.297-2.767 2.767v2.681c-2.162 1.73-3.892 3.114-4.065 3.287-.865.691-1.47 2.075-1.47 3.2v22.657c0 2.335 1.816 4.151 4.151 4.151h35.976c2.248 0 4.151-1.816 4.151-4.15V17.807c0-1.21-.605-2.421-1.557-3.2zM22.47 3.107c1.816 0 3.805 1.47 5.448 2.767H16.934c1.643-1.297 3.632-2.767 5.535-2.767zM8.632 8.64h27.674v15.05c-2.854 2.248-5.708 4.497-7.524 5.967-1.47 1.21-4.324 3.978-6.313 3.892-2.076.086-4.93-2.681-6.4-3.892-1.816-1.47-4.67-3.718-7.437-5.967V8.641zm-5.535 9.167c0-.432.173-.778.433-1.038.173-.086 1.038-.864 2.335-1.816v6.486a43.785 43.785 0 01-2.768-2.248v-1.384zm38.744 22.658c0 .779-.692 1.384-1.384 1.384H4.481a1.366 1.366 0 01-1.384-1.384V22.738c3.633 3.027 8.562 6.918 11.243 9.08 1.816 1.47 4.93 4.584 8.129 4.497 3.113.087 6.227-3.027 8.043-4.497 2.68-2.162 7.61-6.053 11.329-9.08v17.728zm0-21.274c-.865.692-1.816 1.47-2.768 2.248v-6.486c1.211.952 2.076 1.73 2.249 1.816.26.26.519.606.519 1.038v1.384z" fill="#FDAA08"/></svg>