<svg width="74" height="73" fill="none" xmlns="http://www.w3.org/2000/svg"><path d="M51.128 44.104c11.76 0 21.292-9.532 21.292-21.291 0-11.76-9.533-21.292-21.292-21.292-11.759 0-21.292 9.532-21.292 21.291 0 11.76 9.533 21.292 21.292 21.292z" fill="#FED049"/><path d="M8.545 62.354H2.46V50.188a6.083 6.083 0 016.084-6.084h3.041l4.563 4.563 4.562-4.563h3.042a6.083 6.083 0 016.083 6.084v12.166h-6.083v9.125H8.545v-9.125zM16.149 38.02a6.083 6.083 0 100-12.166 6.083 6.083 0 000 12.167z" fill="#F1F2F2"/><path d="M51.128 44.104A21.292 21.292 0 0072.42 22.813v24.333a6.084 6.084 0 01-6.084 6.083H45.045l-7.604 9.125V53.23h-7.605v-3.041a6.083 6.083 0 00-6.083-6.084h-3.042l-4.562 4.563-4.563-4.563H8.545a6.084 6.084 0 00-6.084 6.084V7.603a6.083 6.083 0 016.084-6.083h42.583a21.292 21.292 0 000 42.583zM22.232 31.938a6.083 6.083 0 10-12.165 0 6.083 6.083 0 0012.165 0z" fill="#D0D7DF"/><path d="M29.836 63.875a1.52 1.52 0 01-1.52-1.52V50.187a4.562 4.562 0 00-4.563-4.563h-2.412l-4.117 4.117a1.52 1.52 0 01-2.15 0l-4.117-4.117H8.545a4.563 4.563 0 00-4.563 4.563v12.166a1.52 1.52 0 11-3.041 0V50.188a7.613 7.613 0 017.604-7.605h3.041c.404 0 .79.16 1.076.446l3.487 3.487 3.487-3.487a1.52 1.52 0 011.075-.446h3.042a7.614 7.614 0 017.604 7.605v12.166a1.52 1.52 0 01-1.52 1.521zM16.149 39.542a7.604 7.604 0 117.604-7.605 7.614 7.614 0 01-7.604 7.605zm0-12.167a4.563 4.563 0 100 9.125 4.563 4.563 0 000-9.125z" fill="#474C54"/><path d="M23.753 73a1.52 1.52 0 01-1.52-1.52V53.23a1.52 1.52 0 013.04 0v18.25a1.52 1.52 0 01-1.52 1.52zM8.545 73a1.52 1.52 0 01-1.521-1.52V53.23a1.52 1.52 0 013.042 0v18.25A1.52 1.52 0 018.545 73zM2.461 41.063a1.52 1.52 0 01-1.52-1.521V7.604A7.613 7.613 0 018.545 0h24.333a1.52 1.52 0 010 3.042H8.545a4.562 4.562 0 00-4.563 4.562v31.938a1.521 1.521 0 01-1.52 1.52zM37.44 63.875a1.52 1.52 0 01-1.52-1.52v-9.126a1.52 1.52 0 013.041 0v4.925l4.916-5.9a1.523 1.523 0 011.168-.546h21.291a4.562 4.562 0 004.563-4.562v-6.084a1.52 1.52 0 113.042 0v6.084a7.613 7.613 0 01-7.605 7.604h-20.58l-7.147 8.579a1.52 1.52 0 01-1.168.546z" fill="#474C54"/><path d="M51.128 45.625a22.812 22.812 0 1122.813-22.813 22.838 22.838 0 01-22.813 22.813zm0-42.583a19.77 19.77 0 1019.77 19.77 19.794 19.794 0 00-19.77-19.77z" fill="#474C54"/><path d="M43.524 19.77a1.521 1.521 0 01-1.52-1.52v-4.563a1.52 1.52 0 113.04 0v4.563a1.52 1.52 0 01-1.52 1.52zM58.732 19.77a1.52 1.52 0 01-1.52-1.52v-4.563a1.52 1.52 0 113.041 0v4.563a1.52 1.52 0 01-1.52 1.52zM51.128 36.5a12.18 12.18 0 01-12.167-12.167 1.52 1.52 0 013.042 0 9.125 9.125 0 0018.25 0 1.521 1.521 0 013.042 0A12.18 12.18 0 0151.128 36.5z" fill="#474C54"/></svg>