<svg width="55" height="59" fill="none" xmlns="http://www.w3.org/2000/svg"><path d="M53.758 15.94h-9.5c-1.26 0-2.468-.509-3.359-1.415a4.877 4.877 0 01-1.391-3.418V1.44l14.25 14.5z" fill="#F6B445"/><path d="M53.758 15.94v36.25c0 1.282-.5 2.511-1.391 3.418a4.709 4.709 0 01-3.36 1.416H8.634c-4.75 0-4.75-4.834-4.75-4.834V6.274c0-1.282.5-2.512 1.391-3.418A4.709 4.709 0 018.633 1.44h30.875v9.667c0 1.282.5 2.511 1.391 3.418a4.709 4.709 0 003.359 1.415h9.5z" fill="#FED049"/><path d="M43.07 25.607v16.916c0 .476-.092.948-.271 1.387-.18.44-.442.84-.774 1.175l-.142-.145-4.75-4.833-7.125-7.25-.178-.23 12.053-9.437.142-.145c.332.336.595.735.774 1.175.18.44.272.91.271 1.387zM11.008 23.19l12.053 9.437-.178.23-7.125 7.25-5.938 6.041V25.607c0-.476.093-.947.272-1.387.18-.44.442-.839.773-1.175l.143.145z" fill="#D0D7DF"/><path d="M37.133 40.107l4.75 4.833.142.145a3.55 3.55 0 01-1.154.787 3.5 3.5 0 01-1.363.276H9.82l5.938-6.041 7.125-7.25.178-.23 3.384 2.646 3.385-2.646.178.23 7.125 7.25z" fill="#F1F2F2"/><path d="M39.508 21.982c.468 0 .93.094 1.363.276.432.183.824.45 1.154.787l-.142.145-12.053 9.437-3.385 2.646-3.384-2.646-12.053-9.437-.143-.145c.33-.337.723-.605 1.155-.787a3.501 3.501 0 011.363-.276h26.125z" fill="#F1F2F2"/><path d="M54.597 15.086L40.347.586a1.186 1.186 0 00-.84-.354H8.634a5.893 5.893 0 00-4.196 1.771 6.103 6.103 0 00-1.742 4.27v29c0 .32.126.628.348.855a1.177 1.177 0 001.68 0 1.22 1.22 0 00.347-.855v-29c0-.961.376-1.883 1.044-2.563a3.532 3.532 0 012.519-1.062H38.32v8.459a6.103 6.103 0 001.742 4.27 5.894 5.894 0 004.196 1.771h2.375c.315 0 .617-.127.84-.354a1.219 1.219 0 000-1.708 1.177 1.177 0 00-.84-.354h-2.375c-.945 0-1.851-.382-2.52-1.062a3.658 3.658 0 01-1.043-2.563v-6.75L52.57 16.44v35.75c0 .961-.375 1.884-1.043 2.563a3.532 3.532 0 01-2.52 1.062H8.634a3.334 3.334 0 01-1.393-.224 3.382 3.382 0 01-1.182-.78 3.453 3.453 0 01-.768-1.204 3.503 3.503 0 01-.22-1.417c0-.32-.125-.628-.347-.854a1.177 1.177 0 00-1.68 0 1.22 1.22 0 00-.348.854c-.03.802.104 1.6.392 2.348a5.837 5.837 0 001.281 1.992 5.718 5.718 0 001.958 1.304c.734.292 1.52.428 2.307.398h40.375a5.893 5.893 0 004.196-1.772 6.103 6.103 0 001.741-4.27V15.94c0-.32-.125-.628-.348-.854z" fill="#474C54"/><path d="M1.508 42.523h4.75a4.545 4.545 0 001.84-.33 4.61 4.61 0 001.56-1.043 4.706 4.706 0 001.026-1.588 4.77 4.77 0 00.324-1.872V25.607c.003-.268.05-.533.138-.785l10.148 7.943-6.376 6.487a1.209 1.209 0 00-.362.859 1.226 1.226 0 00.348.865 1.184 1.184 0 00.85.354 1.17 1.17 0 00.844-.37l6.594-6.71 2.53 1.981a1.174 1.174 0 001.447 0l2.53-1.98 6.594 6.71a1.177 1.177 0 001.665-.015 1.22 1.22 0 00.014-1.694l-6.375-6.487 10.148-7.943c.088.252.135.517.138.785v16.916c0 .641-.25 1.256-.696 1.709a2.355 2.355 0 01-1.68.708H9.82c-.315 0-.617.127-.84.354a1.22 1.22 0 000 1.709c.223.226.525.353.84.353h29.688c1.26 0 2.468-.509 3.359-1.415a4.877 4.877 0 001.39-3.418V25.606c0-1.281-.5-2.51-1.39-3.417a4.709 4.709 0 00-3.36-1.416H13.384c-1.26 0-2.468.51-3.359 1.416a4.877 4.877 0 00-1.391 3.418V37.69a2.312 2.312 0 01-.65 1.755 2.232 2.232 0 01-.793.52 2.2 2.2 0 01-.932.141h-4.75c-.315 0-.617.128-.84.354a1.22 1.22 0 000 1.71c.223.226.525.353.84.353zm38-19.333c.127.002.255.015.38.037L26.445 33.75 13.003 23.227c.125-.022.252-.035.38-.037h26.125zM5.07 46.148c0-.32-.125-.627-.347-.854a1.177 1.177 0 00-.84-.354H1.508c-.315 0-.617.128-.84.354a1.22 1.22 0 000 1.709c.223.227.525.354.84.354h2.375c.315 0 .617-.127.84-.354a1.22 1.22 0 00.347-.855z" fill="#474C54"/></svg>