<svg width="154" height="40" fill="none" xmlns="http://www.w3.org/2000/svg"><g clip-path="url(#clip0)"><path d="M59.573 19.343v7.713h-4.692v-6.931c0-1.941-.791-2.762-2.026-2.762-1.359 0-2.346.921-2.346 3.011v6.693h-4.693v-6.942c0-1.941-.764-2.762-2.026-2.762-1.383 0-2.37.921-2.37 3.011v6.693h-4.693V13.57H41.2v1.42c1.012-1.095 2.419-1.643 4-1.643 1.828 0 3.383.668 4.322 2.115 1.063-1.336 2.715-2.115 4.64-2.115 3.114 0 5.412 1.817 5.412 5.996zM75.082 19.566v7.49H70.71v-1.74c-.663 1.292-2 1.965-3.952 1.965-3.21 0-4.989-1.817-4.989-4.156 0-2.488 1.803-4.03 5.952-4.03h2.669c-.076-1.37-.988-2.14-2.841-2.14-1.284 0-2.718.445-3.63 1.169l-1.582-3.21c1.533-1.02 3.804-1.558 5.903-1.558 4.348-.009 6.842 1.932 6.842 6.21zm-4.692 3.16v-1.168h-2.026c-1.507 0-2.05.548-2.05 1.367s.642 1.369 1.754 1.369c1.03 0 1.95-.497 2.322-1.567zM92.64 13.57v11.022c0 5.101-2.873 7.514-7.853 7.514-2.569 0-5.015-.596-6.643-1.765l1.703-3.316c1.105.89 2.939 1.442 4.52 1.442 2.52 0 3.582-1.144 3.582-3.259v-.445c-.915 1.069-2.273 1.592-3.977 1.592-3.557 0-6.57-2.538-6.57-6.52 0-3.982 3.013-6.492 6.57-6.492 1.852 0 3.283.596 4.198 1.865V13.57h4.47zM88 19.84c0-1.64-1.235-2.736-2.914-2.736-1.68 0-2.939 1.096-2.939 2.736 0 1.64 1.26 2.762 2.939 2.762s2.911-1.12 2.911-2.762H88zM108.201 19.566v7.49h-4.374v-1.74c-.663 1.292-2 1.965-3.95 1.965-3.213 0-4.991-1.817-4.991-4.156 0-2.488 1.805-4.03 5.954-4.03h2.666c-.075-1.37-.987-2.14-2.841-2.14-1.283 0-2.715.445-3.63 1.169l-1.58-3.21c1.532-1.02 3.803-1.558 5.902-1.558 4.348-.009 6.844 1.932 6.844 6.21zm-4.692 3.16v-1.168h-2.026c-1.507 0-2.05.548-2.05 1.367s.642 1.369 1.754 1.369c1.036 0 1.948-.497 2.319-1.567h.003z" fill="#000"/><path d="M116.101 8.495c.939 0 1.927.274 2.543.846l-.501.946a2.945 2.945 0 00-1.989-.721c-1.603 0-2.43.89-2.43 2.61v1.892h4.123v1.071h-4.092v11.917h-1.235V15.139h-2.37v-1.07h2.37v-1.99c0-2.166 1.284-3.584 3.581-3.584zm7.879 1.391a1.013 1.013 0 01-2.026.024 1.015 1.015 0 011.012-1.02.987.987 0 01.712.286 1 1 0 01.302.71zm-1.64 4.182h1.235v12.988h-1.235V14.068zM128.794 8.595h1.235v18.46h-1.235V8.596zM134.845 9.913a1.015 1.015 0 011.012-1.02 1.004 1.004 0 01.969 1.208 1.005 1.005 0 01-.783.79.992.992 0 01-1.025-.422 1.01 1.01 0 01-.173-.556zm.395 4.155h1.24v12.988h-1.235l-.005-12.988zM140.277 20.57c0-3.857 2.742-6.595 6.447-6.595s6.444 2.731 6.444 6.595-2.739 6.593-6.444 6.593-6.447-2.745-6.447-6.593zm11.632 0c0-3.26-2.222-5.476-5.185-5.476-2.963 0-5.187 2.208-5.187 5.476 0 3.267 2.222 5.473 5.187 5.473 2.965 0 5.185-2.221 5.185-5.473z" fill="#404040"/><path d="M18.09.355c-.53.12-1.026.36-1.451.7-.425.34-.77.771-1.006 1.264a2.835 2.835 0 00-.318 1.215 3.189 3.189 0 00.923 2.464c.723.777 1.467 1.113 2.43 1.126.501.023.999-.09 1.441-.327a3.632 3.632 0 001.182-.943c.325-.394.563-.852.7-1.345a3.45 3.45 0 00-.172-2.113A4.348 4.348 0 0020.513.858c-.31-.2-.647-.354-1-.458A4.292 4.292 0 0018.09.355z" fill="url(#paint0_linear)"/><path d="M17.498 8.876a3.934 3.934 0 00-1.598.801c-.174.138-.813.81-1.657 1.74-1.654 1.828-1.988 2.135-3.008 2.814-.787.484-1.61.904-2.464 1.255a9.394 9.394 0 01-2.951.615l-.612.022v3.643h.384c.221 0 .572-.017.8-.04l.404-.046 5.965 6.01 5.965 6.009v2.546l2.497 2.533 2.518 2.537 2.53-2.548 2.53-2.549-2.51-2.52-2.51-2.528h-2.53l-5.302-5.342-5.302-5.341.773-.365a15.787 15.787 0 002.817-1.781c.08-.071.165-.137.254-.196.013 0 .022.866.022 1.92v1.924l2.994 3.016c1.648 1.658 3.006 3.016 3.022 3.016.106-.095.204-.2.291-.312a5.042 5.042 0 001.242-2.869c.031-.294.04-2.039.029-5.602-.013-5.653 0-5.32-.243-5.972a3.986 3.986 0 00-1.107-1.541 3.946 3.946 0 00-1.69-.85 5.5 5.5 0 00-1.547 0h-.006z" fill="url(#paint1_linear)"/><path d="M3.953 27.002L.168 30.815l1.262 1.271 1.26 1.269 2.944-2.932 2.943-2.933 1.703-.01 1.704-.01-2.124-2.14-2.123-2.138-3.784 3.81z" fill="url(#paint2_linear)"/></g><defs><linearGradient id="paint0_linear" x1="15.311" y1="3.714" x2="22.078" y2="3.714" gradientUnits="userSpaceOnUse"><stop stop-color="#287031"/><stop offset=".63" stop-color="#166846"/><stop offset="1" stop-color="#003327"/></linearGradient><linearGradient id="paint1_linear" x1="541.233" y1="3263.17" x2="3062.82" y2="3263.17" gradientUnits="userSpaceOnUse"><stop stop-color="#287031"/><stop offset=".63" stop-color="#166846"/><stop offset="1" stop-color="#003327"/></linearGradient><linearGradient id="paint2_linear" x1=".168" y1="1299.75" x2="632.041" y2="1299.75" gradientUnits="userSpaceOnUse"><stop stop-color="#287031"/><stop offset=".63" stop-color="#166846"/><stop offset="1" stop-color="#003327"/></linearGradient><clipPath id="clip0"><path fill="#fff" d="M.168.315h153v39h-153z"/></clipPath></defs></svg>