<svg width="153" height="44" viewBox="0 0 153 44" fill="none" xmlns="http://www.w3.org/2000/svg">
<g clip-path="url(#clip0)">
<path d="M18.0898 0.355429C17.5602 0.475631 17.0644 0.714549 16.639 1.05442C16.2137 1.3943 15.8699 1.82638 15.6331 2.31856C15.4376 2.69436 15.3289 3.10978 15.315 3.53383C15.2845 3.98723 15.3511 4.44195 15.5105 4.86709C15.6698 5.29223 15.9181 5.67786 16.2385 5.99777C16.9609 6.77456 17.7054 7.11065 18.6687 7.12401C19.1692 7.1468 19.6667 7.0338 20.1091 6.79682C20.5644 6.56952 20.9673 6.24839 21.2915 5.85422C21.6158 5.46006 21.8542 5.00166 21.9914 4.50872C22.157 3.80399 22.0967 3.06449 21.8191 2.39646C21.5097 1.78763 21.0624 1.26074 20.5134 0.858454C20.2032 0.658287 19.8662 0.503885 19.5126 0.399945C19.044 0.306014 18.5633 0.290972 18.0898 0.355429Z" fill="url(#paint0_linear)"/>
<path d="M17.4978 8.8757C16.9116 9.01641 16.3652 9.29051 15.9005 9.67698C15.7259 9.81498 15.0875 10.4872 14.2435 11.4175C12.5888 13.2449 12.2552 13.5521 11.2345 14.2309C10.4482 14.7152 9.62439 15.135 8.77119 15.4862C7.82627 15.8487 6.82976 16.0561 5.81962 16.1006L5.20766 16.1228V17.9457V19.7664H5.59207C5.81299 19.7664 6.16427 19.7486 6.39182 19.7263L6.79611 19.6796L12.7611 25.6892L18.7261 31.6988V34.2451L21.2226 36.778L23.7411 39.3154L26.2707 36.7669L28.8003 34.2184L26.2906 31.6988L23.7809 29.1703H21.2513L15.9491 23.8284L10.6469 18.4866L11.4201 18.1216C12.4186 17.6295 13.3627 17.0326 14.2369 16.3409C14.3171 16.2699 14.402 16.2045 14.491 16.1451C14.5042 16.1451 14.5131 17.0109 14.5131 18.0659V19.989L17.5066 23.0049C19.1547 24.6631 20.5134 26.0208 20.5289 26.0208C20.6351 25.926 20.7327 25.8217 20.8205 25.7092C21.5271 24.9105 21.962 23.9053 22.0621 22.8402C22.093 22.5464 22.1019 20.8014 22.0908 17.2379C22.0776 11.5845 22.0908 11.9183 21.8478 11.2662C21.6077 10.6699 21.2279 10.141 20.7409 9.72472C20.2538 9.30844 19.674 9.01714 19.0509 8.8757C18.5379 8.80287 18.0174 8.80287 17.5044 8.8757H17.4978Z" fill="url(#paint1_linear)"/>
<path d="M3.9528 27.0024L0.168335 30.8151L1.42982 32.0861L2.6891 33.3547L5.63404 30.4234L8.57677 27.4898L10.2801 27.4809L11.9835 27.4698L9.86035 25.3308L7.73726 23.1919L3.9528 27.0024Z" fill="url(#paint2_linear)"/>
<path d="M59.5731 13.1995V20.9118H54.8806V13.9808C54.8806 12.0399 54.0897 11.2186 52.8547 11.2186C51.496 11.2186 50.5085 12.1401 50.5085 14.2301V20.923H45.816V13.9808C45.816 12.0399 45.0516 11.2186 43.7901 11.2186C42.4072 11.2186 41.4196 12.1401 41.4196 14.2301V20.923H36.7271V7.42589H41.1987V8.84593C42.2105 7.75085 43.6178 7.20331 45.1997 7.20331C47.0267 7.20331 48.582 7.87104 49.521 9.31779C50.5836 7.98233 52.2361 7.20331 54.1604 7.20331C57.2755 7.20331 59.5731 9.01954 59.5731 13.1995Z" fill="black"/>
<path d="M75.0821 13.4221V20.9118H70.71V19.1713C70.0472 20.4644 68.7106 21.1366 66.7576 21.1366C63.5475 21.1366 61.7691 19.3204 61.7691 16.9811C61.7691 14.4927 63.5718 12.9502 67.7208 12.9502H70.3896C70.3145 11.5814 69.4021 10.8113 67.5485 10.8113C66.2649 10.8113 64.8311 11.2564 63.9187 11.9798L62.3369 8.77023C63.8701 7.75082 66.1412 7.21219 68.24 7.21219C72.5878 7.20329 75.0821 9.14416 75.0821 13.4221ZM70.3896 16.5827V15.4142H68.3637C66.857 15.4142 66.3135 15.9617 66.3135 16.7808C66.3135 17.5999 66.9564 18.1496 68.0677 18.1496C69.0972 18.1496 70.0185 17.6533 70.3896 16.5827Z" fill="black"/>
<path d="M92.6391 7.42588V18.4479C92.6391 23.5494 89.767 25.9621 84.7874 25.9621C82.218 25.9621 79.7723 25.3656 78.1441 24.1971L79.8475 20.8807C80.9521 21.771 82.7858 22.323 84.3676 22.323C86.8862 22.323 87.9488 21.1789 87.9488 19.0645V18.6193C87.0342 19.6877 85.6755 20.2107 83.9721 20.2107C80.4152 20.2107 77.4018 17.6733 77.4018 13.6914C77.4018 9.70953 80.4152 7.19885 83.9721 7.19885C85.8235 7.19885 87.2551 7.79536 88.1697 9.06405V7.42588H92.6391ZM87.9996 13.6959C87.9996 12.0555 86.7646 10.9604 85.0856 10.9604C83.4066 10.9604 82.1473 12.0555 82.1473 13.6959C82.1473 15.3363 83.4066 16.4581 85.0856 16.4581C86.7646 16.4581 87.9974 15.3385 87.9974 13.6959H87.9996Z" fill="black"/>
<path d="M108.201 13.4221V20.9118H103.827V19.1713C103.164 20.4644 101.827 21.1366 99.8766 21.1366C96.6643 21.1366 94.8859 19.3204 94.8859 16.9811C94.8859 14.4927 96.6908 12.9502 100.84 12.9502H103.506C103.431 11.5814 102.519 10.8113 100.665 10.8113C99.3817 10.8113 97.9501 11.2564 97.0355 11.9798L95.4559 8.77023C96.9869 7.75082 99.258 7.21219 101.357 7.21219C105.705 7.20329 108.201 9.14416 108.201 13.4221ZM103.509 16.5827V15.4142H101.483C99.976 15.4142 99.4325 15.9617 99.4325 16.7808C99.4325 17.5999 100.075 18.1496 101.187 18.1496C102.223 18.1496 103.135 17.6533 103.506 16.5827H103.509Z" fill="black"/>
<path d="M116.101 2.3511C117.04 2.3511 118.028 2.62487 118.644 3.1969L118.143 4.14285C117.591 3.66403 116.883 3.40725 116.154 3.4217C114.551 3.4217 113.724 4.31201 113.724 6.03253V7.92444H117.847V8.99504H113.755V20.9118H112.52V8.99504H110.15V7.92444H112.52V5.9346C112.52 3.76892 113.804 2.3511 116.101 2.3511ZM123.98 3.74221C123.971 4.00505 123.862 4.2544 123.676 4.43837C123.489 4.62235 123.239 4.72679 122.978 4.72994C122.717 4.73309 122.465 4.63473 122.274 4.45531C122.083 4.27589 121.969 4.02924 121.954 3.7667C121.955 3.49669 122.062 3.23809 122.251 3.04716C122.441 2.85624 122.698 2.74846 122.966 2.74729C123.097 2.74494 123.228 2.76886 123.35 2.8177C123.473 2.86653 123.584 2.9393 123.678 3.03181C123.773 3.12431 123.848 3.23472 123.9 3.35665C123.951 3.47859 123.978 3.60963 123.98 3.74221ZM122.34 7.92444H123.575V20.9118H122.34V7.92444Z" fill="#404040"/>
<path d="M128.794 2.45126H130.029V20.9118H128.794V2.45126Z" fill="#404040"/>
<path d="M134.845 3.76892C134.846 3.49891 134.953 3.2403 135.142 3.04938C135.332 2.85846 135.589 2.75068 135.857 2.74951C136.054 2.75171 136.246 2.81244 136.408 2.92407C136.571 3.0357 136.698 3.19327 136.772 3.37705C136.847 3.56083 136.865 3.76263 136.826 3.95717C136.788 4.15172 136.692 4.33035 136.553 4.47068C136.414 4.61102 136.237 4.70682 136.043 4.74608C135.85 4.78534 135.65 4.76631 135.468 4.69138C135.285 4.61645 135.129 4.48895 135.018 4.32485C134.907 4.16076 134.847 3.96737 134.845 3.76892ZM135.24 7.92444H136.48V20.9118H135.245L135.24 7.92444Z" fill="#404040"/>
<path d="M140.277 14.4259C140.277 10.5687 143.019 7.83096 146.724 7.83096C150.429 7.83096 153.168 10.562 153.168 14.4259C153.168 18.2899 150.429 21.0187 146.724 21.0187C143.019 21.0187 140.277 18.2743 140.277 14.4259ZM151.909 14.4259C151.909 11.1652 149.687 8.95053 146.724 8.95053C143.761 8.95053 141.537 11.1585 141.537 14.4259C141.537 17.6934 143.759 19.8991 146.724 19.8991C149.689 19.8991 151.909 17.6778 151.909 14.4259Z" fill="#404040"/>
<path d="M42.4869 36.2108L42.4779 31.6208L40.2009 35.4458H39.7869L37.5099 31.6478V36.2108H36.6459V29.9108H37.3839L40.0119 34.3388L42.6039 29.9108H43.3419L43.3509 36.2108H42.4869ZM47.5276 31.3958C48.1876 31.3958 48.6916 31.5578 49.0396 31.8818C49.3936 32.2058 49.5706 32.6888 49.5706 33.3308V36.2108H48.7516V35.5808C48.6076 35.8028 48.4006 35.9738 48.1306 36.0938C47.8666 36.2078 47.5516 36.2648 47.1856 36.2648C46.6516 36.2648 46.2226 36.1358 45.8986 35.8778C45.5806 35.6198 45.4216 35.2808 45.4216 34.8608C45.4216 34.4408 45.5746 34.1048 45.8806 33.8528C46.1866 33.5948 46.6726 33.4658 47.3386 33.4658H48.7066V33.2948C48.7066 32.9228 48.5986 32.6378 48.3826 32.4398C48.1666 32.2418 47.8486 32.1428 47.4286 32.1428C47.1466 32.1428 46.8706 32.1908 46.6006 32.2868C46.3306 32.3768 46.1026 32.4998 45.9166 32.6558L45.5566 32.0078C45.8026 31.8098 46.0966 31.6598 46.4386 31.5578C46.7806 31.4498 47.1436 31.3958 47.5276 31.3958ZM47.3296 35.5988C47.6596 35.5988 47.9446 35.5268 48.1846 35.3828C48.4246 35.2328 48.5986 35.0228 48.7066 34.7528V34.0868H47.3746C46.6426 34.0868 46.2766 34.3328 46.2766 34.8248C46.2766 35.0648 46.3696 35.2538 46.5556 35.3918C46.7416 35.5298 46.9996 35.5988 47.3296 35.5988ZM52.6725 32.2418C52.8225 31.9658 53.0445 31.7558 53.3385 31.6118C53.6325 31.4678 53.9895 31.3958 54.4095 31.3958V32.2328C54.3615 32.2268 54.2955 32.2238 54.2115 32.2238C53.7435 32.2238 53.3745 32.3648 53.1045 32.6468C52.8405 32.9228 52.7085 33.3188 52.7085 33.8348V36.2108H51.8445V31.4408H52.6725V32.2418ZM58.0034 33.9878L57.0134 34.9058V36.2108H56.1494V29.5328H57.0134V33.8168L59.6144 31.4408H60.6584L58.6514 33.4118L60.8564 36.2108H59.7944L58.0034 33.9878ZM66.4792 33.8528C66.4792 33.9188 66.4732 34.0058 66.4612 34.1138H62.5912C62.6452 34.5338 62.8282 34.8728 63.1402 35.1308C63.4582 35.3828 63.8512 35.5088 64.3192 35.5088C64.8892 35.5088 65.3482 35.3168 65.6962 34.9328L66.1732 35.4908C65.9572 35.7428 65.6872 35.9348 65.3632 36.0668C65.0452 36.1988 64.6882 36.2648 64.2922 36.2648C63.7882 36.2648 63.3412 36.1628 62.9512 35.9588C62.5612 35.7488 62.2582 35.4578 62.0422 35.0858C61.8322 34.7138 61.7272 34.2938 61.7272 33.8258C61.7272 33.3638 61.8292 32.9468 62.0332 32.5748C62.2432 32.2028 62.5282 31.9148 62.8882 31.7108C63.2542 31.5008 63.6652 31.3958 64.1212 31.3958C64.5772 31.3958 64.9822 31.5008 65.3362 31.7108C65.6962 31.9148 65.9752 32.2028 66.1732 32.5748C66.3772 32.9468 66.4792 33.3728 66.4792 33.8528ZM64.1212 32.1248C63.7072 32.1248 63.3592 32.2508 63.0772 32.5028C62.8012 32.7548 62.6392 33.0848 62.5912 33.4928H65.6512C65.6032 33.0908 65.4382 32.7638 65.1562 32.5118C64.8802 32.2538 64.5352 32.1248 64.1212 32.1248ZM71.0359 35.9318C70.9099 36.0398 70.7539 36.1238 70.5679 36.1838C70.3819 36.2378 70.1899 36.2648 69.9919 36.2648C69.5119 36.2648 69.1399 36.1358 68.8759 35.8778C68.6119 35.6198 68.4799 35.2508 68.4799 34.7708V32.1518H67.6699V31.4408H68.4799V30.3968H69.3439V31.4408H70.7119V32.1518H69.3439V34.7348C69.3439 34.9928 69.4069 35.1908 69.5329 35.3288C69.6649 35.4668 69.8509 35.5358 70.0909 35.5358C70.3549 35.5358 70.5799 35.4608 70.7659 35.3108L71.0359 35.9318ZM72.7555 31.4408H73.6195V36.2108H72.7555V31.4408ZM73.1875 30.5228C73.0195 30.5228 72.8785 30.4688 72.7645 30.3608C72.6565 30.2528 72.6025 30.1208 72.6025 29.9648C72.6025 29.8088 72.6565 29.6768 72.7645 29.5688C72.8785 29.4548 73.0195 29.3978 73.1875 29.3978C73.3555 29.3978 73.4935 29.4518 73.6015 29.5598C73.7155 29.6618 73.7725 29.7908 73.7725 29.9468C73.7725 30.1088 73.7155 30.2468 73.6015 30.3608C73.4935 30.4688 73.3555 30.5228 73.1875 30.5228ZM78.4911 31.3958C79.0971 31.3958 79.5771 31.5728 79.9311 31.9268C80.2911 32.2748 80.4711 32.7878 80.4711 33.4658V36.2108H79.6071V33.5648C79.6071 33.1028 79.4961 32.7548 79.2741 32.5208C79.0521 32.2868 78.7341 32.1698 78.3201 32.1698C77.8521 32.1698 77.4831 32.3078 77.2131 32.5838C76.9431 32.8538 76.8081 33.2438 76.8081 33.7538V36.2108H75.9441V31.4408H76.7721V32.1608C76.9461 31.9148 77.1801 31.7258 77.4741 31.5938C77.7741 31.4618 78.1131 31.3958 78.4911 31.3958ZM87.3345 31.4408V35.5628C87.3345 36.3968 87.1275 37.0118 86.7135 37.4078C86.2995 37.8098 85.6815 38.0108 84.8595 38.0108C84.4095 38.0108 83.9805 37.9478 83.5725 37.8218C83.1645 37.7018 82.8345 37.5278 82.5825 37.2998L82.9965 36.6338C83.2185 36.8258 83.4915 36.9758 83.8155 37.0838C84.1455 37.1978 84.4845 37.2548 84.8325 37.2548C85.3905 37.2548 85.8015 37.1228 86.0655 36.8588C86.3355 36.5948 86.4705 36.1928 86.4705 35.6528V35.2748C86.2665 35.5208 86.0145 35.7068 85.7145 35.8328C85.4205 35.9528 85.0995 36.0128 84.7515 36.0128C84.2955 36.0128 83.8815 35.9168 83.5095 35.7248C83.1435 35.5268 82.8555 35.2538 82.6455 34.9058C82.4355 34.5518 82.3305 34.1498 82.3305 33.6998C82.3305 33.2498 82.4355 32.8508 82.6455 32.5028C82.8555 32.1488 83.1435 31.8758 83.5095 31.6838C83.8815 31.4918 84.2955 31.3958 84.7515 31.3958C85.1115 31.3958 85.4445 31.4618 85.7505 31.5938C86.0625 31.7258 86.3175 31.9208 86.5155 32.1788V31.4408H87.3345ZM84.8505 35.2568C85.1625 35.2568 85.4415 35.1908 85.6875 35.0588C85.9395 34.9268 86.1345 34.7438 86.2725 34.5098C86.4165 34.2698 86.4885 33.9998 86.4885 33.6998C86.4885 33.2378 86.3355 32.8658 86.0295 32.5838C85.7235 32.2958 85.3305 32.1518 84.8505 32.1518C84.3645 32.1518 83.9685 32.2958 83.6625 32.5838C83.3565 32.8658 83.2035 33.2378 83.2035 33.6998C83.2035 33.9998 83.2725 34.2698 83.4105 34.5098C83.5545 34.7438 83.7495 34.9268 83.9955 35.0588C84.2475 35.1908 84.5325 35.2568 84.8505 35.2568ZM97.2523 29.5328V36.2108H96.4243V35.4548C96.2323 35.7188 95.9893 35.9198 95.6953 36.0578C95.4013 36.1958 95.0773 36.2648 94.7233 36.2648C94.2613 36.2648 93.8473 36.1628 93.4813 35.9588C93.1153 35.7548 92.8273 35.4698 92.6173 35.1038C92.4133 34.7318 92.3113 34.3058 92.3113 33.8258C92.3113 33.3458 92.4133 32.9228 92.6173 32.5568C92.8273 32.1908 93.1153 31.9058 93.4813 31.7018C93.8473 31.4978 94.2613 31.3958 94.7233 31.3958C95.0653 31.3958 95.3803 31.4618 95.6683 31.5938C95.9563 31.7198 96.1963 31.9088 96.3883 32.1608V29.5328H97.2523ZM94.7953 35.5088C95.0953 35.5088 95.3683 35.4398 95.6143 35.3018C95.8603 35.1578 96.0523 34.9598 96.1903 34.7078C96.3283 34.4498 96.3973 34.1558 96.3973 33.8258C96.3973 33.4958 96.3283 33.2048 96.1903 32.9528C96.0523 32.6948 95.8603 32.4968 95.6143 32.3588C95.3683 32.2208 95.0953 32.1518 94.7953 32.1518C94.4893 32.1518 94.2133 32.2208 93.9673 32.3588C93.7273 32.4968 93.5353 32.6948 93.3913 32.9528C93.2533 33.2048 93.1843 33.4958 93.1843 33.8258C93.1843 34.1558 93.2533 34.4498 93.3913 34.7078C93.5353 34.9598 93.7273 35.1578 93.9673 35.3018C94.2133 35.4398 94.4893 35.5088 94.7953 35.5088ZM103.873 33.8528C103.873 33.9188 103.867 34.0058 103.855 34.1138H99.9851C100.039 34.5338 100.222 34.8728 100.534 35.1308C100.852 35.3828 101.245 35.5088 101.713 35.5088C102.283 35.5088 102.742 35.3168 103.09 34.9328L103.567 35.4908C103.351 35.7428 103.081 35.9348 102.757 36.0668C102.439 36.1988 102.082 36.2648 101.686 36.2648C101.182 36.2648 100.735 36.1628 100.345 35.9588C99.9551 35.7488 99.6521 35.4578 99.4361 35.0858C99.2261 34.7138 99.1211 34.2938 99.1211 33.8258C99.1211 33.3638 99.2231 32.9468 99.4271 32.5748C99.6371 32.2028 99.9221 31.9148 100.282 31.7108C100.648 31.5008 101.059 31.3958 101.515 31.3958C101.971 31.3958 102.376 31.5008 102.73 31.7108C103.09 31.9148 103.369 32.2028 103.567 32.5748C103.771 32.9468 103.873 33.3728 103.873 33.8528ZM101.515 32.1248C101.101 32.1248 100.753 32.2508 100.471 32.5028C100.195 32.7548 100.033 33.0848 99.9851 33.4928H103.045C102.997 33.0908 102.832 32.7638 102.55 32.5118C102.274 32.2538 101.929 32.1248 101.515 32.1248ZM112.98 34.6358H109.632L108.939 36.2108H108.012L110.865 29.9108H111.756L114.618 36.2108H113.673L112.98 34.6358ZM112.665 33.9158L111.306 30.8288L109.947 33.9158H112.665ZM117.809 30.1898C117.293 30.1898 117.035 30.4688 117.035 31.0268V31.4408H118.421V32.1518H117.053V36.2108H116.189V32.1518H115.379V31.4408H116.189V31.0178C116.189 30.5438 116.327 30.1688 116.603 29.8928C116.879 29.6168 117.266 29.4788 117.764 29.4788C117.956 29.4788 118.136 29.5028 118.304 29.5508C118.472 29.5988 118.616 29.6678 118.736 29.7578L118.475 30.4148C118.277 30.2648 118.055 30.1898 117.809 30.1898ZM119.96 31.4408H120.824V36.2108H119.96V31.4408ZM120.392 30.5228C120.224 30.5228 120.083 30.4688 119.969 30.3608C119.861 30.2528 119.807 30.1208 119.807 29.9648C119.807 29.8088 119.861 29.6768 119.969 29.5688C120.083 29.4548 120.224 29.3978 120.392 29.3978C120.56 29.3978 120.698 29.4518 120.806 29.5598C120.92 29.6618 120.977 29.7908 120.977 29.9468C120.977 30.1088 120.92 30.2468 120.806 30.3608C120.698 30.4688 120.56 30.5228 120.392 30.5228ZM123.145 29.5328H124.009V36.2108H123.145V29.5328ZM126.334 31.4408H127.198V36.2108H126.334V31.4408ZM126.766 30.5228C126.598 30.5228 126.457 30.4688 126.343 30.3608C126.235 30.2528 126.181 30.1208 126.181 29.9648C126.181 29.8088 126.235 29.6768 126.343 29.5688C126.457 29.4548 126.598 29.3978 126.766 29.3978C126.934 29.3978 127.072 29.4518 127.18 29.5598C127.294 29.6618 127.351 29.7908 127.351 29.9468C127.351 30.1088 127.294 30.2468 127.18 30.3608C127.072 30.4688 126.934 30.5228 126.766 30.5228ZM131.259 31.3958C131.919 31.3958 132.423 31.5578 132.771 31.8818C133.125 32.2058 133.302 32.6888 133.302 33.3308V36.2108H132.483V35.5808C132.339 35.8028 132.132 35.9738 131.862 36.0938C131.598 36.2078 131.283 36.2648 130.917 36.2648C130.383 36.2648 129.954 36.1358 129.63 35.8778C129.312 35.6198 129.153 35.2808 129.153 34.8608C129.153 34.4408 129.306 34.1048 129.612 33.8528C129.918 33.5948 130.404 33.4658 131.07 33.4658H132.438V33.2948C132.438 32.9228 132.33 32.6378 132.114 32.4398C131.898 32.2418 131.58 32.1428 131.16 32.1428C130.878 32.1428 130.602 32.1908 130.332 32.2868C130.062 32.3768 129.834 32.4998 129.648 32.6558L129.288 32.0078C129.534 31.8098 129.828 31.6598 130.17 31.5578C130.512 31.4498 130.875 31.3958 131.259 31.3958ZM131.061 35.5988C131.391 35.5988 131.676 35.5268 131.916 35.3828C132.156 35.2328 132.33 35.0228 132.438 34.7528V34.0868H131.106C130.374 34.0868 130.008 34.3328 130.008 34.8248C130.008 35.0648 130.101 35.2538 130.287 35.3918C130.473 35.5298 130.731 35.5988 131.061 35.5988ZM140.103 29.5328V36.2108H139.275V35.4548C139.083 35.7188 138.84 35.9198 138.546 36.0578C138.252 36.1958 137.928 36.2648 137.574 36.2648C137.112 36.2648 136.698 36.1628 136.332 35.9588C135.966 35.7548 135.678 35.4698 135.468 35.1038C135.264 34.7318 135.162 34.3058 135.162 33.8258C135.162 33.3458 135.264 32.9228 135.468 32.5568C135.678 32.1908 135.966 31.9058 136.332 31.7018C136.698 31.4978 137.112 31.3958 137.574 31.3958C137.916 31.3958 138.231 31.4618 138.519 31.5938C138.807 31.7198 139.047 31.9088 139.239 32.1608V29.5328H140.103ZM137.646 35.5088C137.946 35.5088 138.219 35.4398 138.465 35.3018C138.711 35.1578 138.903 34.9598 139.041 34.7078C139.179 34.4498 139.248 34.1558 139.248 33.8258C139.248 33.4958 139.179 33.2048 139.041 32.9528C138.903 32.6948 138.711 32.4968 138.465 32.3588C138.219 32.2208 137.946 32.1518 137.646 32.1518C137.34 32.1518 137.064 32.2208 136.818 32.3588C136.578 32.4968 136.386 32.6948 136.242 32.9528C136.104 33.2048 136.035 33.4958 136.035 33.8258C136.035 34.1558 136.104 34.4498 136.242 34.7078C136.386 34.9598 136.578 35.1578 136.818 35.3018C137.064 35.4398 137.34 35.5088 137.646 35.5088ZM144.455 36.2648C143.981 36.2648 143.555 36.1598 143.177 35.9498C142.799 35.7398 142.502 35.4518 142.286 35.0858C142.076 34.7138 141.971 34.2938 141.971 33.8258C141.971 33.3578 142.076 32.9408 142.286 32.5748C142.502 32.2028 142.799 31.9148 143.177 31.7108C143.555 31.5008 143.981 31.3958 144.455 31.3958C144.929 31.3958 145.352 31.5008 145.724 31.7108C146.102 31.9148 146.396 32.2028 146.606 32.5748C146.822 32.9408 146.93 33.3578 146.93 33.8258C146.93 34.2938 146.822 34.7138 146.606 35.0858C146.396 35.4518 146.102 35.7398 145.724 35.9498C145.352 36.1598 144.929 36.2648 144.455 36.2648ZM144.455 35.5088C144.761 35.5088 145.034 35.4398 145.274 35.3018C145.52 35.1578 145.712 34.9598 145.85 34.7078C145.988 34.4498 146.057 34.1558 146.057 33.8258C146.057 33.4958 145.988 33.2048 145.85 32.9528C145.712 32.6948 145.52 32.4968 145.274 32.3588C145.034 32.2208 144.761 32.1518 144.455 32.1518C144.149 32.1518 143.873 32.2208 143.627 32.3588C143.387 32.4968 143.195 32.6948 143.051 32.9528C142.913 33.2048 142.844 33.4958 142.844 33.8258C142.844 34.1558 142.913 34.4498 143.051 34.7078C143.195 34.9598 143.387 35.1578 143.627 35.3018C143.873 35.4398 144.149 35.5088 144.455 35.5088ZM150.168 36.2648C149.778 36.2648 149.403 36.2138 149.043 36.1118C148.683 36.0038 148.401 35.8688 148.197 35.7068L148.557 35.0228C148.767 35.1728 149.022 35.2928 149.322 35.3828C149.622 35.4728 149.925 35.5178 150.231 35.5178C150.987 35.5178 151.365 35.3018 151.365 34.8698C151.365 34.7258 151.314 34.6118 151.212 34.5278C151.11 34.4438 150.981 34.3838 150.825 34.3478C150.675 34.3058 150.459 34.2608 150.177 34.2128C149.793 34.1528 149.478 34.0838 149.232 34.0058C148.992 33.9278 148.785 33.7958 148.611 33.6098C148.437 33.4238 148.35 33.1628 148.35 32.8268C148.35 32.3948 148.53 32.0498 148.89 31.7918C149.25 31.5278 149.733 31.3958 150.339 31.3958C150.657 31.3958 150.975 31.4348 151.293 31.5128C151.611 31.5908 151.872 31.6958 152.076 31.8278L151.707 32.5118C151.317 32.2598 150.858 32.1338 150.33 32.1338C149.964 32.1338 149.685 32.1938 149.493 32.3138C149.301 32.4338 149.205 32.5928 149.205 32.7908C149.205 32.9468 149.259 33.0698 149.367 33.1598C149.475 33.2498 149.607 33.3158 149.763 33.3578C149.925 33.3998 150.15 33.4478 150.438 33.5018C150.822 33.5678 151.131 33.6398 151.365 33.7178C151.605 33.7898 151.809 33.9158 151.977 34.0958C152.145 34.2758 152.229 34.5278 152.229 34.8518C152.229 35.2838 152.043 35.6288 151.671 35.8868C151.305 36.1388 150.804 36.2648 150.168 36.2648Z" fill="#404040"/>
</g>
<defs>
<linearGradient id="paint0_linear" x1="15.3106" y1="3.71412" x2="22.0776" y2="3.71412" gradientUnits="userSpaceOnUse">
<stop stop-color="#287031"/>
<stop offset="0.63" stop-color="#166846"/>
<stop offset="1" stop-color="#003327"/>
</linearGradient>
<linearGradient id="paint1_linear" x1="541.233" y1="3263.17" x2="3062.82" y2="3263.17" gradientUnits="userSpaceOnUse">
<stop stop-color="#287031"/>
<stop offset="0.63" stop-color="#166846"/>
<stop offset="1" stop-color="#003327"/>
</linearGradient>
<linearGradient id="paint2_linear" x1="0.168335" y1="1299.75" x2="632.041" y2="1299.75" gradientUnits="userSpaceOnUse">
<stop stop-color="#287031"/>
<stop offset="0.63" stop-color="#166846"/>
<stop offset="1" stop-color="#003327"/>
</linearGradient>
<clipPath id="clip0">
<rect width="153" height="44" fill="white"/>
</clipPath>
</defs>
</svg>
