<svg width="153" height="44" fill="none" xmlns="http://www.w3.org/2000/svg"><g clip-path="url(#clip0)"><path d="M18.09.355c-.53.12-1.026.36-1.451.7-.425.34-.77.771-1.006 1.264a2.835 2.835 0 00-.318 1.215 3.189 3.189 0 00.923 2.464c.723.777 1.467 1.113 2.43 1.126.501.023.999-.09 1.441-.327a3.632 3.632 0 001.182-.943c.325-.394.563-.852.7-1.345a3.45 3.45 0 00-.172-2.113A4.348 4.348 0 0020.513.858c-.31-.2-.647-.354-1-.458A4.292 4.292 0 0018.09.355z" fill="url(#paint0_linear)"/><path d="M17.498 8.876a3.934 3.934 0 00-1.598.801c-.174.138-.813.81-1.657 1.74-1.654 1.828-1.988 2.135-3.008 2.814-.787.484-1.61.904-2.464 1.255a9.394 9.394 0 01-2.951.615l-.612.022v3.643h.384c.221 0 .572-.017.8-.04l.404-.046 5.965 6.01 5.965 6.009v2.546l2.497 2.533 2.518 2.537 2.53-2.548 2.53-2.549-2.51-2.52-2.51-2.528h-2.53l-5.302-5.342-5.302-5.341.773-.365a15.787 15.787 0 002.817-1.781c.08-.071.165-.137.254-.196.013 0 .022.866.022 1.92v1.924l2.994 3.016c1.648 1.658 3.006 3.016 3.022 3.016.106-.095.204-.2.291-.312a5.042 5.042 0 001.242-2.869c.031-.294.04-2.039.029-5.602-.013-5.653 0-5.32-.243-5.972a3.986 3.986 0 00-1.107-1.541 3.946 3.946 0 00-1.69-.85 5.5 5.5 0 00-1.547 0h-.006z" fill="url(#paint1_linear)"/><path d="M3.953 27.002L.168 30.815l1.262 1.271 1.26 1.269 2.944-2.932 2.943-2.933 1.703-.01 1.704-.01-2.124-2.14-2.123-2.138-3.784 3.81z" fill="url(#paint2_linear)"/><path d="M59.573 13.2v7.712h-4.692V13.98c0-1.941-.791-2.762-2.026-2.762-1.359 0-2.346.921-2.346 3.011v6.693h-4.693v-6.942c0-1.941-.764-2.762-2.026-2.762-1.383 0-2.37.921-2.37 3.011v6.693h-4.693V7.426H41.2v1.42c1.012-1.095 2.419-1.643 4-1.643 1.828 0 3.383.668 4.322 2.115 1.063-1.336 2.715-2.115 4.64-2.115 3.114 0 5.412 1.817 5.412 5.997zM75.082 13.422v7.49H70.71v-1.74c-.663 1.292-2 1.965-3.952 1.965-3.21 0-4.989-1.817-4.989-4.156 0-2.488 1.803-4.03 5.952-4.03h2.669c-.076-1.37-.988-2.14-2.841-2.14-1.284 0-2.718.445-3.63 1.169l-1.582-3.21c1.533-1.02 3.804-1.558 5.903-1.558 4.348-.009 6.842 1.932 6.842 6.21zm-4.692 3.16v-1.168h-2.026c-1.507 0-2.05.548-2.05 1.367s.642 1.369 1.754 1.369c1.03 0 1.95-.497 2.322-1.567zM92.64 7.426v11.022c0 5.101-2.873 7.514-7.853 7.514-2.569 0-5.015-.596-6.643-1.765l1.703-3.316c1.105.89 2.939 1.442 4.52 1.442 2.52 0 3.582-1.144 3.582-3.259v-.445c-.915 1.069-2.273 1.592-3.977 1.592-3.557 0-6.57-2.538-6.57-6.52 0-3.981 3.013-6.492 6.57-6.492 1.852 0 3.283.596 4.198 1.865V7.426h4.47zM88 13.696c0-1.64-1.235-2.736-2.914-2.736-1.68 0-2.939 1.095-2.939 2.736 0 1.64 1.26 2.762 2.939 2.762s2.911-1.12 2.911-2.762H88zM108.201 13.422v7.49h-4.374v-1.74c-.663 1.292-2 1.965-3.95 1.965-3.213 0-4.991-1.817-4.991-4.156 0-2.488 1.805-4.03 5.954-4.03h2.666c-.075-1.37-.987-2.14-2.841-2.14-1.283 0-2.715.445-3.63 1.169l-1.58-3.21c1.532-1.02 3.803-1.558 5.902-1.558 4.348-.009 6.844 1.932 6.844 6.21zm-4.692 3.16v-1.168h-2.026c-1.507 0-2.05.548-2.05 1.367s.642 1.369 1.754 1.369c1.036 0 1.948-.497 2.319-1.567h.003z" fill="#000"/><path d="M116.101 2.351c.939 0 1.927.274 2.543.846l-.501.946a2.945 2.945 0 00-1.989-.721c-1.603 0-2.43.89-2.43 2.61v1.892h4.123v1.071h-4.092v11.917h-1.235V8.995h-2.37v-1.07h2.37v-1.99c0-2.166 1.284-3.584 3.581-3.584zm7.879 1.391a1.029 1.029 0 01-.304.696 1.013 1.013 0 01-1.722-.671 1.015 1.015 0 011.012-1.02.987.987 0 01.712.285 1 1 0 01.302.71zm-1.64 4.182h1.235v12.988h-1.235V7.924zM128.794 2.451h1.235v18.46h-1.235V2.452zM134.845 3.769a1.015 1.015 0 011.012-1.02 1.004 1.004 0 01.969 1.208 1.005 1.005 0 01-.783.79.99.99 0 01-1.025-.422 1.01 1.01 0 01-.173-.556zm.395 4.155h1.24v12.988h-1.235l-.005-12.988zM140.277 14.426c0-3.857 2.742-6.595 6.447-6.595s6.444 2.731 6.444 6.595-2.739 6.593-6.444 6.593-6.447-2.745-6.447-6.593zm11.632 0c0-3.26-2.222-5.475-5.185-5.475-2.963 0-5.187 2.207-5.187 5.475 0 3.267 2.222 5.473 5.187 5.473 2.965 0 5.185-2.221 5.185-5.473zM42.487 36.21l-.01-4.59-2.276 3.826h-.414l-2.277-3.798v4.563h-.864v-6.3h.738l2.628 4.428 2.592-4.428h.738l.009 6.3h-.864zm5.04-4.814c.66 0 1.165.162 1.513.486.354.324.53.807.53 1.449v2.88h-.818v-.63a1.39 1.39 0 01-.621.513 2.374 2.374 0 01-.945.17c-.534 0-.963-.128-1.287-.386a1.246 1.246 0 01-.477-1.017c0-.42.153-.756.459-1.008.306-.258.792-.387 1.458-.387h1.368v-.171c0-.372-.108-.657-.324-.855-.216-.198-.534-.297-.954-.297-.282 0-.558.048-.828.144a2.07 2.07 0 00-.684.369l-.36-.648c.246-.198.54-.348.882-.45a3.596 3.596 0 011.089-.162zm-.197 4.203c.33 0 .615-.072.855-.216.24-.15.414-.36.522-.63v-.666h-1.332c-.732 0-1.098.246-1.098.738 0 .24.093.429.279.567.186.138.444.207.774.207zm5.343-3.357c.15-.276.371-.486.666-.63.294-.144.65-.216 1.07-.216v.837a1.687 1.687 0 00-.197-.01c-.469 0-.838.142-1.108.424-.264.276-.395.672-.395 1.188v2.376h-.865v-4.77h.828v.8zm5.33 1.746l-.99.918v1.305h-.864v-6.678h.864v4.284l2.601-2.376h1.044l-2.007 1.97 2.205 2.8h-1.062l-1.79-2.223zm8.476-.135c0 .066-.006.153-.018.26h-3.87c.054.42.237.76.55 1.018.317.252.71.378 1.178.378.57 0 1.03-.192 1.377-.576l.477.558a2.083 2.083 0 01-.81.576 2.77 2.77 0 01-1.07.198 2.85 2.85 0 01-1.342-.306 2.275 2.275 0 01-.909-.873 2.518 2.518 0 01-.315-1.26c0-.462.102-.88.306-1.251.21-.372.495-.66.855-.864.366-.21.777-.315 1.233-.315.456 0 .861.105 1.215.315.36.204.64.492.837.864.204.372.306.798.306 1.278zm-2.358-1.728c-.414 0-.762.126-1.044.378-.276.252-.438.582-.486.99h3.06a1.507 1.507 0 00-.495-.981c-.276-.258-.62-.387-1.035-.387zm6.915 3.807a1.343 1.343 0 01-.468.252 2.055 2.055 0 01-.576.08c-.48 0-.852-.128-1.116-.386-.264-.258-.396-.627-.396-1.107v-2.62h-.81v-.71h.81v-1.044h.864v1.044h1.368v.71h-1.368v2.584c0 .258.063.456.189.594.132.138.318.207.558.207.264 0 .489-.075.675-.225l.27.62zm1.72-4.491h.864v4.77h-.865v-4.77zm.431-.918a.591.591 0 01-.422-.162.539.539 0 01-.162-.396c0-.156.053-.288.162-.396a.575.575 0 01.422-.171.56.56 0 01.415.162.497.497 0 01.17.387c0 .162-.056.3-.17.414a.56.56 0 01-.415.162zm5.304.873c.606 0 1.086.177 1.44.53.36.349.54.862.54 1.54v2.745h-.864v-2.646c0-.462-.11-.81-.333-1.044-.222-.234-.54-.351-.954-.351-.468 0-.837.138-1.107.414-.27.27-.405.66-.405 1.17v2.457h-.864v-4.77h.828v.72c.174-.246.408-.435.702-.567a2.5 2.5 0 011.017-.198zm8.844.045v4.122c0 .834-.207 1.449-.621 1.845-.415.402-1.032.603-1.855.603-.45 0-.878-.063-1.286-.19-.408-.12-.738-.293-.99-.521l.413-.666c.223.192.496.342.82.45.33.114.668.17 1.016.17.559 0 .97-.131 1.234-.395.27-.264.404-.666.404-1.206v-.378a1.945 1.945 0 01-.755.558c-.294.12-.615.18-.964.18-.456 0-.87-.096-1.242-.288a2.226 2.226 0 01-.864-.82 2.318 2.318 0 01-.314-1.205c0-.45.105-.85.314-1.197.21-.354.499-.627.865-.82a2.667 2.667 0 011.241-.287c.36 0 .694.066 1 .198.311.132.566.327.764.585v-.738h.82zm-2.484 3.816c.311 0 .59-.066.837-.198.251-.132.447-.315.584-.55.144-.24.216-.51.216-.81 0-.461-.153-.833-.459-1.115-.305-.288-.698-.432-1.178-.432-.486 0-.882.144-1.189.432-.306.282-.459.654-.459 1.116 0 .3.07.57.207.81.145.234.34.417.586.549.252.132.537.198.855.198zm12.401-5.724v6.678h-.828v-.756a1.87 1.87 0 01-.729.603 2.259 2.259 0 01-.972.207c-.462 0-.876-.102-1.242-.306a2.232 2.232 0 01-.864-.855 2.614 2.614 0 01-.306-1.278c0-.48.102-.903.306-1.27.21-.365.498-.65.864-.854.366-.204.78-.306 1.242-.306.342 0 .657.066.945.198.288.126.528.315.72.567v-2.628h.864zm-2.457 5.976c.3 0 .573-.07.82-.207.245-.144.437-.342.575-.594a1.84 1.84 0 00.207-.882c0-.33-.069-.621-.207-.873a1.447 1.447 0 00-.576-.594 1.645 1.645 0 00-.819-.207c-.306 0-.582.069-.828.207-.24.138-.432.336-.576.594a1.788 1.788 0 00-.207.873c0 .33.07.624.207.882.144.252.336.45.576.594.246.138.522.207.828.207zm9.078-1.656c0 .066-.006.153-.018.26h-3.87c.054.42.237.76.549 1.018.318.252.711.378 1.179.378.57 0 1.029-.192 1.377-.576l.477.558a2.083 2.083 0 01-.81.576 2.77 2.77 0 01-1.071.198 2.85 2.85 0 01-1.341-.306 2.275 2.275 0 01-.909-.873 2.518 2.518 0 01-.315-1.26c0-.462.102-.88.306-1.251.21-.372.495-.66.855-.864.366-.21.777-.315 1.233-.315.456 0 .861.105 1.215.315.36.204.639.492.837.864.204.372.306.798.306 1.278zm-2.358-1.728c-.414 0-.762.126-1.044.378-.276.252-.438.582-.486.99h3.06a1.507 1.507 0 00-.495-.981c-.276-.258-.621-.387-1.035-.387zm11.465 2.51h-3.348l-.693 1.576h-.927l2.853-6.3h.891l2.862 6.3h-.945l-.693-1.575zm-.315-.72l-1.359-3.086-1.359 3.087h2.718zm5.144-3.725c-.516 0-.774.279-.774.837v.414h1.386v.71h-1.368v4.06h-.864v-4.06h-.81v-.71h.81v-.423c0-.474.138-.85.414-1.125.276-.276.663-.414 1.161-.414.192 0 .372.024.54.072.168.048.312.117.432.207l-.261.657a1.076 1.076 0 00-.666-.225zm2.151 1.25h.864v4.77h-.864v-4.77zm.432-.917a.591.591 0 01-.423-.162.539.539 0 01-.162-.396c0-.156.054-.288.162-.396a.575.575 0 01.423-.171.56.56 0 01.414.162.497.497 0 01.171.387c0 .162-.057.3-.171.414a.56.56 0 01-.414.162zm2.753-.99h.864v6.678h-.864v-6.678zm3.189 1.908h.864v4.77h-.864v-4.77zm.432-.918a.591.591 0 01-.423-.162.539.539 0 01-.162-.396c0-.156.054-.288.162-.396a.575.575 0 01.423-.171.56.56 0 01.414.162.497.497 0 01.171.387c0 .162-.057.3-.171.414a.56.56 0 01-.414.162zm4.493.873c.66 0 1.164.162 1.512.486.354.324.531.807.531 1.449v2.88h-.819v-.63a1.39 1.39 0 01-.621.513 2.374 2.374 0 01-.945.17c-.534 0-.963-.128-1.287-.386a1.246 1.246 0 01-.477-1.017c0-.42.153-.756.459-1.008.306-.258.792-.387 1.458-.387h1.368v-.171c0-.372-.108-.657-.324-.855-.216-.198-.534-.297-.954-.297-.282 0-.558.048-.828.144a2.07 2.07 0 00-.684.369l-.36-.648c.246-.198.54-.348.882-.45a3.596 3.596 0 011.089-.162zm-.198 4.203c.33 0 .615-.072.855-.216.24-.15.414-.36.522-.63v-.666h-1.332c-.732 0-1.098.246-1.098.738 0 .24.093.429.279.567.186.138.444.207.774.207zm9.042-6.066v6.678h-.828v-.756a1.87 1.87 0 01-.729.603 2.259 2.259 0 01-.972.207c-.462 0-.876-.102-1.242-.306a2.232 2.232 0 01-.864-.855 2.614 2.614 0 01-.306-1.278c0-.48.102-.903.306-1.27.21-.365.498-.65.864-.854.366-.204.78-.306 1.242-.306.342 0 .657.066.945.198.288.126.528.315.72.567v-2.628h.864zm-2.457 5.976c.3 0 .573-.07.819-.207.246-.144.438-.342.576-.594a1.84 1.84 0 00.207-.882c0-.33-.069-.621-.207-.873a1.447 1.447 0 00-.576-.594 1.645 1.645 0 00-.819-.207c-.306 0-.582.069-.828.207-.24.138-.432.336-.576.594a1.788 1.788 0 00-.207.873c0 .33.069.624.207.882.144.252.336.45.576.594.246.138.522.207.828.207zm6.809.756c-.474 0-.9-.105-1.278-.315a2.326 2.326 0 01-.891-.864 2.518 2.518 0 01-.315-1.26c0-.468.105-.885.315-1.251.216-.372.513-.66.891-.864.378-.21.804-.315 1.278-.315s.897.105 1.269.315c.378.204.672.492.882.864.216.366.324.783.324 1.25 0 .469-.108.889-.324 1.26-.21.367-.504.655-.882.865-.372.21-.795.315-1.269.315zm0-.756c.306 0 .579-.07.819-.207.246-.144.438-.342.576-.594a1.84 1.84 0 00.207-.882c0-.33-.069-.621-.207-.873a1.447 1.447 0 00-.576-.594 1.613 1.613 0 00-.819-.207c-.306 0-.582.069-.828.207-.24.138-.432.336-.576.594a1.788 1.788 0 00-.207.873c0 .33.069.624.207.882.144.252.336.45.576.594.246.138.522.207.828.207zm5.713.756c-.39 0-.765-.051-1.125-.153-.36-.108-.642-.243-.846-.405l.36-.684c.21.15.465.27.765.36.3.09.603.135.909.135.756 0 1.134-.216 1.134-.648a.42.42 0 00-.153-.342.926.926 0 00-.387-.18 6.791 6.791 0 00-.648-.135 6.562 6.562 0 01-.945-.207 1.453 1.453 0 01-.621-.396c-.174-.186-.261-.447-.261-.783 0-.432.18-.777.54-1.035.36-.264.843-.396 1.449-.396.318 0 .636.039.954.117.318.078.579.183.783.315l-.369.684c-.39-.252-.849-.378-1.377-.378-.366 0-.645.06-.837.18-.192.12-.288.279-.288.477 0 .156.054.279.162.369.108.09.24.156.396.198.162.042.387.09.675.144.384.066.693.138.927.216.24.072.444.198.612.378.168.18.252.432.252.756 0 .432-.186.777-.558 1.035-.366.252-.867.378-1.503.378z" fill="#404040"/></g><defs><linearGradient id="paint0_linear" x1="15.311" y1="3.714" x2="22.078" y2="3.714" gradientUnits="userSpaceOnUse"><stop stop-color="#287031"/><stop offset=".63" stop-color="#166846"/><stop offset="1" stop-color="#003327"/></linearGradient><linearGradient id="paint1_linear" x1="541.233" y1="3263.17" x2="3062.82" y2="3263.17" gradientUnits="userSpaceOnUse"><stop stop-color="#287031"/><stop offset=".63" stop-color="#166846"/><stop offset="1" stop-color="#003327"/></linearGradient><linearGradient id="paint2_linear" x1=".168" y1="1299.75" x2="632.041" y2="1299.75" gradientUnits="userSpaceOnUse"><stop stop-color="#287031"/><stop offset=".63" stop-color="#166846"/><stop offset="1" stop-color="#003327"/></linearGradient><clipPath id="clip0"><path fill="#fff" d="M0 0h153v44H0z"/></clipPath></defs></svg>