<svg width="15" height="11" fill="none" xmlns="http://www.w3.org/2000/svg"><path d="M12.758.43H1.384C.645.43.07 1.03.07 1.742v7.875c0 .738.574 1.313 1.313 1.313h11.374c.712 0 1.313-.575 1.313-1.313V1.742A1.33 1.33 0 0012.758.43zm0 1.312v1.121c-.628.52-1.613 1.285-3.69 2.926-.466.356-1.368 1.23-1.997 1.203-.656.028-1.559-.847-2.023-1.203-2.079-1.64-3.063-2.406-3.664-2.926v-1.12h11.374zM1.384 9.617V4.56c.601.492 1.503 1.203 2.843 2.27.602.464 1.668 1.503 2.844 1.476 1.148.027 2.188-1.012 2.816-1.477a449.65 449.65 0 012.871-2.27v5.06H1.384z" fill="#000"/></svg>