<svg width="15" height="11" viewBox="0 0 15 11" fill="none" xmlns="http://www.w3.org/2000/svg">
<path d="M12.7585 0.429688H1.38354C0.645264 0.429688 0.0710449 1.03125 0.0710449 1.74219V9.61719C0.0710449 10.3555 0.645264 10.9297 1.38354 10.9297H12.7585C13.4695 10.9297 14.071 10.3555 14.071 9.61719V1.74219C14.071 1.03125 13.4695 0.429688 12.7585 0.429688ZM12.7585 1.74219V2.86328C12.1296 3.38281 11.1453 4.14844 9.06714 5.78906C8.60229 6.14453 7.69995 7.01953 7.07104 6.99219C6.41479 7.01953 5.51245 6.14453 5.04761 5.78906C2.96948 4.14844 1.98511 3.38281 1.38354 2.86328V1.74219H12.7585ZM1.38354 9.61719V4.55859C1.98511 5.05078 2.88745 5.76172 4.22729 6.82812C4.82886 7.29297 5.89526 8.33203 7.07104 8.30469C8.21948 8.33203 9.25854 7.29297 9.88745 6.82812C11.2273 5.76172 12.1296 5.05078 12.7585 4.55859V9.61719H1.38354Z" fill="black"/>
</svg>
