<svg width="15" height="15" fill="none" xmlns="http://www.w3.org/2000/svg"><path d="M13.086 1.309l-2.57-.575C9.915.598 9.313.9 9.094 1.445l-1.203 2.79a1.233 1.233 0 00.356 1.449l1.093.902c-.765 1.422-1.968 2.598-3.39 3.39l-.903-1.093a1.233 1.233 0 00-1.449-.356L.81 9.703a1.272 1.272 0 00-.71 1.45l.573 2.57c.137.574.657.957 1.23.957 6.7 0 12.169-5.414 12.169-12.14 0-.575-.41-1.095-.985-1.231zM1.958 13.367l-.575-2.46 2.68-1.15 1.531 1.86c2.707-1.285 4.102-2.68 5.387-5.386l-1.86-1.532 1.15-2.68 2.487.575c-.027 5.933-4.867 10.746-10.8 10.773z" fill="#000"/></svg>