<svg width="29" height="29" fill="none" xmlns="http://www.w3.org/2000/svg"><path d="M28.832 22.428a6.39 6.39 0 01-6.393 6.393H7.225a6.39 6.39 0 01-6.393-6.393V7.22A6.4 6.4 0 017.23.82h15.11a6.488 6.488 0 016.492 6.492v15.115z" fill="url(#paint0_radial)"/><path d="M18.726 4.682h-7.788c-3.45 0-6.25 2.8-6.25 6.25v7.783a6.245 6.245 0 006.25 6.245h7.782a6.243 6.243 0 006.245-6.245v-7.782a6.236 6.236 0 00-6.24-6.25zm4.298 13.284a5.046 5.046 0 01-5.048 5.047h-6.289a5.046 5.046 0 01-5.047-5.047v-6.29a5.046 5.046 0 015.047-5.047h6.29a5.05 5.05 0 015.047 5.048v6.289z" fill="#fff"/><path d="M15.105 9.517a5.344 5.344 0 105.343 5.343 5.347 5.347 0 00-5.343-5.343zm0 8.553a3.214 3.214 0 01-3.215-3.216 3.214 3.214 0 013.215-3.215 3.217 3.217 0 013.216 3.215 3.22 3.22 0 01-3.216 3.216zM21.433 9.434a1.356 1.356 0 11-2.713 0 1.357 1.357 0 112.713 0z" fill="#fff"/><defs><radialGradient id="paint0_radial" cx="0" cy="0" r="1" gradientUnits="userSpaceOnUse" gradientTransform="matrix(37.1042 0 0 37.1031 9.033 30.99)"><stop offset=".097" stop-color="#FFD87A"/><stop offset=".143" stop-color="#FCCE78"/><stop offset=".226" stop-color="#F5B471"/><stop offset=".338" stop-color="#EB8D65"/><stop offset=".449" stop-color="#E36058"/><stop offset=".679" stop-color="#CD3694"/><stop offset="1" stop-color="#6668B0"/></radialGradient></defs></svg>