<svg width="115" height="35" viewBox="0 0 115 35" fill="none" xmlns="http://www.w3.org/2000/svg">
<g clip-path="url(#clip0)">
<path d="M1.4162 20.0905C1.4162 19.2248 1.96392 18.6738 2.74638 18.6738C3.60709 18.6738 4.07657 19.2248 4.07657 20.0905V20.484H4.15481C4.93727 19.3035 6.18921 18.6738 7.59764 18.6738C8.61484 18.6738 9.78853 19.1461 10.3363 20.484C11.1187 19.3822 12.1359 18.6738 13.7008 18.6738C15.657 18.6738 17.3002 19.6183 17.3002 22.1368V28.0396C17.3002 28.8266 16.9872 29.4562 15.8917 29.4562C14.7963 29.4562 14.4833 28.7479 14.4833 28.0396V22.8451C14.4833 21.822 14.0138 20.9562 12.9184 20.9562C11.8229 20.9562 10.8057 21.822 10.8057 23.1599V27.9609C10.8057 28.7479 10.4927 29.3775 9.3973 29.3775C8.30186 29.3775 7.98887 28.6692 7.98887 27.9609V22.7664C7.98887 21.7433 7.5194 20.8775 6.42395 20.8775C5.3285 20.8775 4.31131 21.7433 4.31131 23.0812V27.8822C4.31131 28.6692 3.99832 29.2988 2.90287 29.2988C1.80743 29.2988 1.49444 28.5905 1.49444 27.8822V19.9331L1.4162 20.0905Z" fill="#898989"/>
<path d="M26.2202 24.4192C25.9072 24.734 25.2812 24.8127 24.9683 24.8914L23.9511 25.0488C22.7774 25.2062 22.0731 25.5998 22.0731 26.4655C22.0731 27.0951 22.6991 27.6461 23.6381 27.6461C25.203 27.6461 26.1419 26.6229 26.1419 25.5211V24.4192H26.2202ZM29.1153 26.4655C29.1153 27.6461 29.4283 27.9609 29.4283 28.4331C29.4283 29.0627 28.8023 29.5349 28.0981 29.5349C26.8462 29.5349 26.4549 28.7479 26.3767 27.8822C25.2812 29.1414 23.9511 29.5349 22.4644 29.5349C20.8212 29.5349 19.2563 28.4331 19.2563 26.6229C19.2563 24.2618 21.0559 23.5535 23.2468 23.3173L24.9683 23.0812C25.6725 23.0025 26.2202 22.8451 26.2202 21.9794C26.2202 21.1136 25.3595 20.7988 24.4205 20.7988C22.3079 20.7988 22.2296 22.3729 21.1342 22.3729C20.43 22.3729 19.8823 21.822 19.8823 21.2711C19.8823 20.0905 21.5254 18.6738 24.4205 18.6738C27.1591 18.6738 29.0371 19.5396 29.0371 21.6646V26.4655H29.1153Z" fill="#898989"/>
<path d="M36.2357 26.859C37.4877 26.859 38.5049 25.9933 38.5049 23.947C38.5049 21.822 37.7224 20.9562 36.3922 20.9562C34.5143 20.9562 33.9666 22.2942 33.9666 24.1044C33.9666 25.4423 34.5925 26.859 36.2357 26.859ZM41.2435 28.4331C41.2435 31.8961 39.1308 33.4701 36.1575 33.4701C33.9666 33.4701 31.8539 32.447 31.8539 31.109C31.8539 30.4007 32.4017 29.8498 33.0276 29.8498C34.2013 29.8498 34.4361 31.3451 36.0792 31.3451C37.8006 31.3451 38.5049 30.4794 38.5049 28.197V27.5673H38.4266C37.8789 28.3544 36.7834 28.984 35.688 28.984C32.6364 28.984 31.0715 27.0164 31.0715 24.1831C31.0715 20.484 33.1841 18.6738 35.5315 18.6738C36.9399 18.6738 38.0354 19.3035 38.5831 20.4053V20.0118C38.5831 19.1461 39.0526 18.6738 39.9133 18.6738C40.774 18.6738 41.2435 19.1461 41.2435 20.0118V28.3544V28.4331Z" fill="#898989"/>
<path d="M50.1635 24.4192C49.8506 24.734 49.2246 24.8127 48.9116 24.8914L47.8944 25.0488C46.7207 25.2062 46.0165 25.5998 46.0165 26.4655C46.0165 27.0951 46.6425 27.6461 47.5814 27.6461C49.1463 27.6461 50.0853 26.6229 50.0853 25.5211V24.4192H50.1635ZM53.0587 26.4655C53.0587 27.6461 53.3716 27.9609 53.3716 28.4331C53.3716 29.0627 52.7457 29.5349 52.0415 29.5349C50.7895 29.5349 50.3983 28.7479 50.32 27.8822C49.2246 29.1414 47.8944 29.5349 46.4077 29.5349C44.7646 29.5349 43.1996 28.4331 43.1996 26.6229C43.1996 24.2618 44.9993 23.5535 47.1902 23.3173L48.9116 23.0812C49.6158 23.0025 50.1635 22.8451 50.1635 21.9794C50.1635 21.1136 49.3028 20.7988 48.3639 20.7988C46.2512 20.7988 46.173 22.3729 45.0776 22.3729C44.3733 22.3729 43.8256 21.822 43.8256 21.2711C43.8256 20.0905 45.4688 18.6738 48.3639 18.6738C51.1025 18.6738 52.9804 19.5396 52.9804 21.6646V26.4655H53.0587Z" fill="#898989"/>
<path d="M55.4843 20.0905C55.4843 19.2248 56.032 18.6738 56.8144 18.6738C57.6751 18.6738 58.1446 19.2248 58.1446 20.0905V20.484H58.2229C59.0053 19.3035 60.2573 18.6738 61.6657 18.6738C62.6829 18.6738 63.8566 19.1461 64.4043 20.484C65.1868 19.3822 66.204 18.6738 67.7689 18.6738C69.725 18.6738 71.3682 19.6183 71.3682 22.1368V28.0396C71.3682 28.8266 71.0552 29.4562 69.9598 29.4562C68.8643 29.4562 68.5514 28.7479 68.5514 28.0396V22.8451C68.5514 21.822 68.0819 20.9562 66.9864 20.9562C65.891 20.9562 64.8738 21.822 64.8738 23.1599V27.9609C64.8738 28.7479 64.5608 29.3775 63.4654 29.3775C62.3699 29.3775 62.0569 28.6692 62.0569 27.9609V22.7664C62.0569 21.7433 61.5874 20.8775 60.492 20.8775C59.3966 20.8775 58.3794 21.7433 58.3794 23.0812V27.8822C58.3794 28.6692 58.0664 29.2988 56.9709 29.2988C55.8755 29.2988 55.5625 28.5905 55.5625 27.8822V19.9331L55.4843 20.0905Z" fill="#898989"/>
<path d="M78.5669 27.3313C80.2883 27.3313 80.9925 25.7573 80.9925 24.0258C80.9925 22.1369 80.2101 20.7202 78.5669 20.7202C76.9237 20.7202 76.1413 22.1369 76.1413 24.0258C76.1413 25.7573 76.8455 27.3313 78.5669 27.3313ZM78.5669 18.5952C82.0097 18.5952 83.8876 20.9563 83.8876 24.0258C83.8876 26.9378 82.4792 29.4563 78.5669 29.4563C74.6546 29.4563 73.2462 26.9378 73.2462 24.0258C73.2462 20.9563 75.1241 18.5952 78.5669 18.5952Z" fill="#898989"/>
<path d="M90.695 20.9563C88.9736 20.9563 88.4259 22.6878 88.4259 24.1831C88.4259 25.8359 89.0518 27.3313 90.695 27.3313C92.2599 27.2526 92.9641 25.9146 92.9641 24.1831C92.9641 22.8452 92.4947 20.9563 90.695 20.9563ZM85.6873 16.234C85.6873 15.2896 86.235 14.8174 87.0957 14.8174C87.9564 14.8174 88.5041 15.2896 88.5041 16.234V20.1692H88.5824C89.1301 19.2248 90.1473 18.6739 91.3992 18.6739C94.4508 18.6739 95.781 21.2711 95.781 24.0257C95.781 27.7248 93.6684 29.535 91.321 29.535C89.9125 29.535 88.7389 28.9053 88.2694 27.7248H88.1911V28.197C88.1911 29.0628 87.7217 29.535 86.8609 29.535C86.0002 29.535 85.5308 29.0628 85.5308 28.197V16.3128L85.6873 16.234Z" fill="#898989"/>
<path d="M97.8154 20.0905C97.8154 19.3035 98.1284 18.6738 99.2239 18.6738C100.319 18.6738 100.632 19.3822 100.632 20.0905V28.0396C100.632 28.8266 100.319 29.4562 99.2239 29.4562C98.1284 29.4562 97.8154 28.7479 97.8154 28.0396V20.0905Z" fill="#898989"/>
<path d="M111.196 10.7251L89.9126 2.46117L90.1473 1.83154L111.43 10.1741L111.196 10.7251Z" fill="#95C12B"/>
<path d="M99.3021 16.4701L98.9891 15.9192L111.196 10.1738L111.43 10.7248L99.3021 16.4701Z" fill="#95C12B"/>
<path d="M110.648 13.322C109.083 12.9285 108.066 11.3544 108.457 9.78036C108.848 8.20628 110.413 7.18313 111.978 7.57665C113.543 7.97017 114.56 9.54424 114.169 11.1183C113.778 12.6924 112.213 13.7155 110.648 13.322Z" fill="#95C12B"/>
<path d="M98.8326 17.8869C97.8937 17.6508 97.346 16.7064 97.5807 15.8406C97.8154 14.8962 98.7544 14.3453 99.6151 14.5814C100.554 14.8175 101.102 15.7619 100.867 16.6277C100.632 17.5721 99.6933 18.1231 98.8326 17.8869Z" fill="#95C12B"/>
<path d="M89.6779 3.40542C88.9736 3.24801 88.5824 2.53968 88.7389 1.91005C88.8954 1.20172 89.5996 0.808197 90.2256 0.965605C90.9298 1.12301 91.321 1.83135 91.1645 2.46098C91.008 3.16931 90.3038 3.56283 89.6779 3.40542Z" fill="#95C12B"/>
<path d="M4.38955 9.70184H4.93728V12.1417C4.93728 12.5352 4.85903 12.9287 4.78078 13.1648C4.70254 13.4009 4.54605 13.637 4.23306 13.7944C3.99832 13.9518 3.68534 14.0305 3.21586 14.0305C2.82463 14.0305 2.51165 13.9518 2.27691 13.7944C2.04217 13.637 1.80743 13.4796 1.72919 13.1648C1.65094 12.9287 1.57269 12.5352 1.57269 12.063V9.62314H2.12042V12.063C2.12042 12.4565 2.12042 12.6926 2.19866 12.85C2.27691 13.0074 2.35515 13.1648 2.51165 13.2435C2.66814 13.3222 2.90288 13.4009 3.13762 13.4009C3.52885 13.4009 3.84183 13.3222 3.99832 13.0861C4.15481 12.9287 4.23306 12.5352 4.23306 11.9842V9.54443L4.38955 9.70184Z" fill="#666666"/>
<path d="M5.87622 13.9519V10.8824H6.3457V11.3546C6.42394 11.1972 6.58043 11.1185 6.73693 10.9611C6.89342 10.8824 7.04991 10.8037 7.28465 10.8037C7.51939 10.8037 7.67588 10.8824 7.83237 10.9611C7.98887 11.0398 8.06711 11.1972 8.14536 11.3546C8.3801 10.9611 8.69308 10.8037 9.08431 10.8037C9.3973 10.8037 9.63203 10.8824 9.78853 11.0398C9.94502 11.1972 10.0233 11.4333 10.0233 11.8269V13.9519H9.47554V11.9843C9.47554 11.7482 9.47554 11.5907 9.3973 11.512C9.3973 11.4333 9.31905 11.3546 9.2408 11.2759C9.16256 11.1972 9.08431 11.1972 8.92782 11.1972C8.69308 11.1972 8.53659 11.2759 8.3801 11.4333C8.2236 11.5907 8.14536 11.8269 8.14536 12.1417V13.9519H7.59763V11.9843C7.59763 11.7482 7.51939 11.5907 7.44114 11.4333C7.3629 11.3546 7.2064 11.2759 7.04991 11.2759C6.89342 11.2759 6.73693 11.2759 6.65868 11.3546C6.50219 11.4333 6.42394 11.512 6.42394 11.6695C6.3457 11.8269 6.3457 12.063 6.3457 12.2991V13.8732H5.79797L5.87622 13.9519Z" fill="#666666"/>
<path d="M12.7619 13.5583C12.6054 13.7157 12.3706 13.8732 12.2142 13.8732C12.0577 13.9519 11.8229 13.9519 11.6664 13.9519C11.3534 13.9519 11.0405 13.8732 10.884 13.7157C10.7275 13.5583 10.6492 13.3222 10.6492 13.0861C10.6492 12.9287 10.6492 12.7713 10.7275 12.6926C10.8057 12.5352 10.884 12.4565 10.9622 12.3778C11.0405 12.2991 11.197 12.2204 11.3534 12.2204C11.4317 12.2204 11.5882 12.1417 11.8229 12.1417C12.2142 12.063 12.5271 12.063 12.7619 11.9843C12.7619 11.9056 12.7619 11.9056 12.7619 11.8269C12.7619 11.5907 12.6836 11.4333 12.6054 11.3546C12.4489 11.1972 12.2924 11.1972 11.9794 11.1972C11.7447 11.1972 11.5882 11.2759 11.4317 11.3546C11.2752 11.4333 11.197 11.5907 11.197 11.8269L10.6492 11.7482C10.7275 11.512 10.8057 11.3546 10.884 11.1972C10.9622 11.0398 11.1187 10.9611 11.3534 10.8824C11.5882 10.8037 11.8229 10.8037 12.0577 10.8037C12.2924 10.8037 12.5271 10.8037 12.6836 10.8824C12.8401 10.9611 12.9966 11.0398 13.0749 11.1185C13.1531 11.1972 13.2314 11.3546 13.2314 11.512C13.2314 11.5907 13.2314 11.7482 13.2314 11.9843V12.6926C13.2314 13.1648 13.2314 13.4796 13.2314 13.637C13.2314 13.7945 13.3096 13.8732 13.3878 14.0306H12.8401C12.7619 13.9519 12.7619 13.7945 12.7619 13.637V13.5583ZM12.6836 12.3778C12.5271 12.4565 12.2142 12.5352 11.8229 12.5352C11.5882 12.5352 11.4317 12.6139 11.3534 12.6139C11.2752 12.6139 11.197 12.6926 11.1187 12.7713C11.0405 12.85 11.0405 12.9287 11.0405 13.0074C11.0405 13.1648 11.1187 13.2435 11.197 13.3222C11.2752 13.4009 11.4317 13.4796 11.6664 13.4796C11.9012 13.4796 12.0577 13.4009 12.2142 13.3222C12.3706 13.2435 12.4489 13.0861 12.5271 12.9287C12.6054 12.7713 12.6054 12.6139 12.6054 12.3778V12.2204L12.6836 12.3778Z" fill="#666666"/>
<path d="M17.8479 12.9287L18.3956 13.0074C18.3173 13.3222 18.1609 13.5583 17.9261 13.7157C17.6914 13.8732 17.3784 13.9519 17.0654 13.9519C16.5959 13.9519 16.283 13.7945 15.97 13.5583C15.7352 13.2435 15.5787 12.9287 15.5787 12.3778C15.5787 11.8269 15.7352 11.4333 15.97 11.1972C16.2047 10.8824 16.5959 10.8037 16.9872 10.8037C17.3784 10.8037 17.7696 10.9611 18.0044 11.1972C18.2391 11.512 18.3956 11.9056 18.3956 12.3778C18.3956 12.3778 18.3956 12.4565 18.3956 12.5352H16.1265C16.1265 12.85 16.2047 13.1648 16.4394 13.3222C16.5959 13.4796 16.8307 13.5583 17.0654 13.5583C17.2219 13.5583 17.4566 13.4796 17.5349 13.4009C17.6914 13.3222 17.7696 13.1648 17.8479 12.9287ZM16.1265 12.063H17.8479C17.8479 11.8269 17.7696 11.5907 17.6131 11.512C17.4566 11.2759 17.2219 11.1972 16.9872 11.1972C16.7524 11.1972 16.5177 11.2759 16.3612 11.4333C16.2047 11.5907 16.1265 11.8269 16.1265 12.063Z" fill="#666666"/>
<path d="M19.0215 13.9519V10.8824H19.491V11.3546C19.5693 11.1972 19.7258 11.1185 19.8823 10.9611C20.0387 10.8824 20.1952 10.8037 20.43 10.8037C20.6647 10.8037 20.8212 10.8824 20.9777 10.9611C21.1342 11.0398 21.2124 11.1972 21.2907 11.3546C21.5254 10.9611 21.8384 10.8037 22.2296 10.8037C22.5426 10.8037 22.7774 10.8824 22.9339 11.0398C23.0903 11.1972 23.1686 11.4333 23.1686 11.8269V13.9519H22.6209V11.9843C22.6209 11.7482 22.6209 11.5907 22.5426 11.512C22.5426 11.4333 22.4644 11.3546 22.3861 11.2759C22.3079 11.1972 22.2296 11.1972 22.0731 11.1972C21.8384 11.1972 21.6819 11.2759 21.5254 11.4333C21.3689 11.5907 21.2907 11.8269 21.2907 12.1417V13.9519H20.743V11.9843C20.743 11.7482 20.6647 11.5907 20.5865 11.4333C20.5082 11.3546 20.3517 11.2759 20.1952 11.2759C20.0387 11.2759 19.8823 11.2759 19.804 11.3546C19.6475 11.4333 19.5693 11.512 19.5693 11.6695C19.491 11.8269 19.491 12.063 19.491 12.2991V13.8732H18.9433L19.0215 13.9519Z" fill="#666666"/>
<path d="M23.951 15.1324V10.8824H24.4205V11.2759C24.4988 11.1185 24.6553 11.0398 24.8118 10.9611C24.9683 10.8824 25.1247 10.8037 25.3595 10.8037C25.5942 10.8037 25.829 10.8824 26.0637 11.0398C26.2984 11.1972 26.3767 11.3546 26.5332 11.5907C26.6114 11.8269 26.6897 12.1417 26.6897 12.3778C26.6897 12.6926 26.6114 13.0074 26.5332 13.2435C26.4549 13.4796 26.2202 13.7157 26.0637 13.7945C25.829 13.9519 25.5942 14.0306 25.3595 14.0306C25.203 14.0306 25.0465 14.0306 24.89 13.9519C24.7335 13.8732 24.6553 13.7945 24.577 13.637V15.1324H24.0293H23.951ZM24.4205 12.4565C24.4205 12.85 24.4988 13.1648 24.6553 13.3222C24.8118 13.4796 25.0465 13.637 25.203 13.637C25.4377 13.637 25.5942 13.5583 25.829 13.3222C25.9855 13.0861 26.0637 12.85 26.0637 12.3778C26.0637 11.9843 25.9855 11.6695 25.829 11.512C25.6725 11.3546 25.516 11.1972 25.2812 11.1972C25.0465 11.1972 24.89 11.2759 24.7335 11.512C24.577 11.7482 24.4988 11.9843 24.4988 12.4565H24.4205Z" fill="#666666"/>
<path d="M27.2374 13.9519V10.8824H27.7069V11.3546C27.8634 11.1185 27.9416 10.9611 28.0199 10.8824C28.0981 10.8037 28.2546 10.8037 28.3329 10.8037C28.4894 10.8037 28.7241 10.8824 28.8806 10.9611L28.7241 11.4333C28.5676 11.3546 28.4894 11.3546 28.3329 11.3546C28.2546 11.3546 28.0981 11.3546 28.0199 11.4333C27.9416 11.512 27.8634 11.5907 27.8634 11.7482C27.7852 11.9056 27.7852 12.1417 27.7852 12.3778V13.9519H27.2374Z" fill="#666666"/>
<path d="M31.3062 12.9287L31.854 13.0074C31.7757 13.3222 31.6192 13.5583 31.3845 13.7157C31.1498 13.8732 30.8368 13.9519 30.5238 13.9519C30.0543 13.9519 29.7413 13.7945 29.4283 13.5583C29.1936 13.2435 29.0371 12.9287 29.0371 12.3778C29.0371 11.8269 29.1936 11.4333 29.4283 11.1972C29.6631 10.8824 30.0543 10.8037 30.4455 10.8037C30.8368 10.8037 31.228 10.9611 31.4627 11.1972C31.6975 11.512 31.854 11.9056 31.854 12.3778C31.854 12.3778 31.854 12.4565 31.854 12.5352H29.5848C29.5848 12.85 29.6631 13.1648 29.8978 13.3222C30.0543 13.4796 30.289 13.5583 30.5238 13.5583C30.6803 13.5583 30.915 13.4796 30.9933 13.4009C31.1498 13.3222 31.228 13.1648 31.3062 12.9287ZM29.5848 12.063H31.3062C31.3062 11.8269 31.228 11.5907 31.0715 11.512C30.915 11.2759 30.6803 11.1972 30.4455 11.1972C30.2108 11.1972 29.9761 11.2759 29.8196 11.4333C29.6631 11.5907 29.5848 11.8269 29.5848 12.063Z" fill="#666666"/>
<path d="M32.2452 13.0075L32.7929 12.9288C32.7929 13.1649 32.8711 13.3223 33.0276 13.401C33.1841 13.4797 33.3406 13.5584 33.5754 13.5584C33.8101 13.5584 33.9666 13.4797 34.1231 13.401C34.2013 13.3223 34.2796 13.1649 34.2796 13.0862C34.2796 13.0075 34.2013 12.8501 34.1231 12.7714C34.0448 12.6927 33.8883 12.6927 33.5754 12.614C33.1841 12.5353 32.9494 12.4566 32.7929 12.3779C32.6364 12.2992 32.5582 12.2205 32.4799 12.0631C32.4017 11.9057 32.4017 11.8269 32.4017 11.6695C32.4017 11.5121 32.4017 11.4334 32.4799 11.276C32.5582 11.1973 32.6364 11.0399 32.7147 10.9612C32.7929 10.8825 32.8711 10.8825 33.0276 10.8038C33.1841 10.7251 33.3406 10.7251 33.4971 10.7251C33.7319 10.7251 33.9666 10.7251 34.1231 10.8038C34.2796 10.8825 34.4361 10.9612 34.5143 11.1186C34.5926 11.276 34.6708 11.4334 34.6708 11.5908L34.1231 11.6695C34.1231 11.5121 34.0448 11.3547 33.8883 11.276C33.8101 11.1973 33.6536 11.1186 33.4189 11.1186C33.1841 11.1186 33.0276 11.1973 32.8711 11.276C32.7929 11.3547 32.7147 11.4334 32.7147 11.5908C32.7147 11.6695 32.7147 11.7482 32.7929 11.7482C32.8711 11.8269 32.8711 11.8269 33.0276 11.9057C33.1059 11.9057 33.2624 11.9844 33.4971 12.0631C33.8883 12.1418 34.1231 12.2205 34.2796 12.2992C34.4361 12.3779 34.5143 12.4566 34.5926 12.5353C34.6708 12.6927 34.7491 12.7714 34.7491 13.0075C34.7491 13.1649 34.6708 13.3223 34.5926 13.4797C34.5143 13.6371 34.3578 13.7158 34.1231 13.8732C33.9666 13.9519 33.7319 14.0307 33.4971 14.0307C33.1059 14.0307 32.7929 13.9519 32.5582 13.7945C32.3234 13.6371 32.2452 13.401 32.1669 13.0862L32.2452 13.0075Z" fill="#666666"/>
<path d="M37.4094 13.5583C37.2529 13.7157 37.0182 13.8732 36.8617 13.8732C36.7052 13.9519 36.4704 13.9519 36.314 13.9519C36.001 13.9519 35.688 13.8732 35.5315 13.7157C35.375 13.5583 35.2968 13.3222 35.2968 13.0861C35.2968 12.9287 35.2968 12.7713 35.375 12.6926C35.4532 12.5352 35.5315 12.4565 35.6097 12.3778C35.688 12.2991 35.8445 12.2204 36.001 12.2204C36.0792 12.2204 36.2357 12.1417 36.4704 12.1417C36.8617 12.063 37.1747 12.063 37.4094 11.9843C37.4094 11.9056 37.4094 11.9056 37.4094 11.8269C37.4094 11.5907 37.3312 11.4333 37.2529 11.3546C37.0964 11.1972 36.9399 11.1972 36.6269 11.1972C36.3922 11.1972 36.2357 11.2759 36.0792 11.3546C35.9227 11.4333 35.8445 11.5907 35.8445 11.8269L35.2968 11.7482C35.375 11.512 35.4532 11.3546 35.5315 11.1972C35.6097 11.0398 35.7662 10.9611 36.001 10.8824C36.2357 10.8037 36.4704 10.8037 36.7052 10.8037C36.9399 10.8037 37.1747 10.8037 37.3312 10.8824C37.4876 10.9611 37.6441 11.0398 37.7224 11.1185C37.8006 11.1972 37.8789 11.3546 37.8789 11.512C37.8789 11.5907 37.8789 11.7482 37.8789 11.9843V12.6926C37.8789 13.1648 37.8789 13.4796 37.8789 13.637C37.8789 13.7945 37.9571 13.8732 38.0354 14.0306H37.4876C37.4094 13.9519 37.4094 13.7945 37.4094 13.637V13.5583ZM37.3312 12.3778C37.1747 12.4565 36.8617 12.5352 36.4704 12.5352C36.2357 12.5352 36.0792 12.6139 36.001 12.6139C35.9227 12.6139 35.8445 12.6926 35.7662 12.7713C35.688 12.85 35.688 12.9287 35.688 13.0074C35.688 13.1648 35.7662 13.2435 35.8445 13.3222C35.9227 13.4009 36.0792 13.4796 36.314 13.4796C36.5487 13.4796 36.7052 13.4009 36.8617 13.3222C37.0182 13.2435 37.0964 13.0861 37.1747 12.9287C37.2529 12.7713 37.2529 12.6139 37.2529 12.3778V12.2204L37.3312 12.3778Z" fill="#666666"/>
<path d="M42.3389 13.9517V13.5581C42.1824 13.873 41.8694 14.0304 41.4782 14.0304C41.2435 14.0304 41.0087 13.9517 40.774 13.7943C40.5392 13.6368 40.3827 13.4794 40.3045 13.2433C40.2263 13.0072 40.148 12.6924 40.148 12.3776C40.148 12.0628 40.2263 11.8267 40.3045 11.5118C40.3827 11.2757 40.5392 11.0396 40.774 10.9609C41.0087 10.8035 41.2435 10.7248 41.4782 10.7248C41.6347 10.7248 41.7912 10.8035 41.9477 10.8822C42.1042 10.9609 42.1824 11.0396 42.2607 11.197V9.70166H42.8084V13.9517H42.3389ZM40.6957 12.3776C40.6957 12.7711 40.774 13.0859 40.9305 13.2433C41.087 13.4007 41.3217 13.5581 41.5564 13.5581C41.7912 13.5581 41.9477 13.4794 42.1042 13.2433C42.2607 13.0859 42.3389 12.7711 42.3389 12.3776C42.3389 11.9841 42.2607 11.6693 42.1042 11.4331C41.9477 11.197 41.7129 11.1183 41.4782 11.1183C41.2435 11.1183 41.087 11.197 40.9305 11.4331C40.774 11.5905 40.6957 11.9054 40.6957 12.2989V12.3776Z" fill="#666666"/>
<path d="M43.4344 12.3778C43.4344 11.8269 43.5909 11.3546 43.9039 11.1185C44.1386 10.8824 44.4516 10.8037 44.8428 10.8037C45.234 10.8037 45.6253 10.9611 45.86 11.1972C46.0948 11.512 46.2512 11.8269 46.2512 12.3778C46.2512 12.7713 46.173 13.0861 46.0948 13.3222C45.9383 13.5583 45.7818 13.7157 45.547 13.8732C45.3123 14.0306 45.0776 14.0306 44.8428 14.0306C44.3733 14.0306 44.0604 13.8732 43.8256 13.637C43.5909 13.3222 43.4344 12.9287 43.4344 12.4565V12.3778ZM43.9821 12.3778C43.9821 12.7713 44.0604 13.0861 44.2168 13.2435C44.3733 13.4009 44.6081 13.5583 44.8428 13.5583C45.0776 13.5583 45.3123 13.4796 45.4688 13.2435C45.6253 13.0074 45.7035 12.7713 45.7035 12.3778C45.7035 11.9843 45.6253 11.6695 45.4688 11.512C45.3123 11.3546 45.0776 11.1972 44.8428 11.1972C44.6081 11.1972 44.3733 11.2759 44.2168 11.512C44.0604 11.6695 43.9821 11.9843 43.9821 12.3778Z" fill="#666666"/>
<path d="M48.5204 14.1881L48.9899 14.2668C48.9899 14.4242 49.0681 14.5029 49.1464 14.5816C49.3028 14.6603 49.4593 14.739 49.6941 14.739C49.9288 14.739 50.0853 14.6603 50.2418 14.5816C50.3983 14.5029 50.4765 14.3455 50.4765 14.1881C50.4765 14.1094 50.5548 13.8732 50.4765 13.4797C50.2418 13.7158 49.9288 13.8732 49.6158 13.8732C49.2246 13.8732 48.8334 13.7158 48.5986 13.401C48.3639 13.0862 48.2856 12.6927 48.2856 12.2992C48.2856 11.9844 48.3639 11.7482 48.4421 11.5121C48.5204 11.276 48.6769 11.0399 48.9116 10.9612C49.1464 10.8038 49.3811 10.7251 49.6158 10.7251C50.0071 10.7251 50.2418 10.8825 50.4765 11.1973V10.8038H50.946V13.4797C50.946 13.9519 50.8678 14.2668 50.7895 14.5029C50.7113 14.739 50.5548 14.8964 50.32 14.9751C50.0853 15.0538 49.8506 15.1325 49.5376 15.1325C49.1464 15.1325 48.9116 15.0538 48.6769 14.8964C48.4421 14.739 48.3639 14.5029 48.3639 14.1881H48.5204ZM48.9116 12.2992C48.9116 12.6927 48.9899 13.0075 49.1464 13.1649C49.3028 13.3223 49.5376 13.4797 49.7723 13.4797C50.0071 13.4797 50.2418 13.401 50.3983 13.1649C50.5548 13.0075 50.633 12.6927 50.633 12.2992C50.633 11.9057 50.5548 11.6695 50.3983 11.4334C50.2418 11.276 50.0071 11.1186 49.7723 11.1186C49.5376 11.1186 49.3811 11.1973 49.1464 11.4334C48.9899 11.5908 48.9116 11.9057 48.9116 12.2992Z" fill="#666666"/>
<path d="M51.8849 13.9519V10.8824H52.3544V11.3546C52.5109 11.1185 52.5892 10.9611 52.6674 10.8824C52.7457 10.8037 52.9021 10.8037 52.9804 10.8037C53.1369 10.8037 53.3716 10.8824 53.5281 10.9611L53.3716 11.4333C53.2151 11.3546 53.1369 11.3546 52.9804 11.3546C52.9021 11.3546 52.7457 11.3546 52.6674 11.4333C52.5892 11.512 52.5109 11.5907 52.5109 11.7482C52.4327 11.9056 52.4327 12.1417 52.4327 12.3778V13.9519H51.8849Z" fill="#666666"/>
<path d="M55.8755 13.9517V13.4795C55.6408 13.7943 55.3278 14.0304 54.9366 14.0304C54.7801 14.0304 54.6236 14.0304 54.4671 13.9517C54.3106 13.873 54.2324 13.7943 54.1541 13.7156C54.0759 13.6369 53.9976 13.4795 53.9976 13.322C53.9976 13.2433 53.9976 13.0859 53.9976 12.8498V10.9609H54.5453V12.6924C54.5453 12.9285 54.5453 13.1646 54.5453 13.2433C54.5453 13.4008 54.6236 13.4795 54.7801 13.5582C54.8583 13.6369 55.0148 13.7156 55.1713 13.7156C55.3278 13.7156 55.4843 13.6369 55.6408 13.5582C55.7973 13.4795 55.8755 13.4008 55.9538 13.2433C56.032 13.0859 56.032 12.9285 56.032 12.6137V10.9609H56.5797V14.0304H56.1103L55.8755 13.9517Z" fill="#666666"/>
<path d="M57.1274 15.1324V10.8824H57.5969V11.2759C57.6752 11.1185 57.8317 11.0398 57.9881 10.9611C58.1446 10.8824 58.3011 10.8037 58.5359 10.8037C58.7706 10.8037 59.0053 10.8824 59.2401 11.0398C59.4748 11.1972 59.5531 11.3546 59.7096 11.5907C59.7878 11.8269 59.8661 12.1417 59.8661 12.3778C59.8661 12.6926 59.7878 13.0074 59.7096 13.2435C59.6313 13.4796 59.3966 13.7157 59.2401 13.7945C59.0053 13.9519 58.7706 14.0306 58.5359 14.0306C58.3794 14.0306 58.2229 14.0306 58.0664 13.9519C57.9099 13.8732 57.8317 13.7945 57.7534 13.637V15.1324H57.2057H57.1274ZM57.5969 12.4565C57.5969 12.85 57.6752 13.1648 57.8317 13.3222C57.9881 13.4796 58.2229 13.637 58.3794 13.637C58.6141 13.637 58.7706 13.5583 59.0053 13.3222C59.1618 13.0861 59.2401 12.85 59.2401 12.3778C59.2401 11.9843 59.1618 11.6695 59.0053 11.512C58.8489 11.3546 58.6924 11.1972 58.4576 11.1972C58.2229 11.1972 58.0664 11.2759 57.9099 11.512C57.7534 11.7482 57.6752 11.9843 57.6752 12.4565H57.5969Z" fill="#666666"/>
<path d="M60.2573 12.3778C60.2573 11.8269 60.4138 11.3546 60.7267 11.1185C60.9615 10.8824 61.2745 10.8037 61.6657 10.8037C62.0569 10.8037 62.4482 10.9611 62.6829 11.1972C62.9176 11.512 63.0741 11.8269 63.0741 12.3778C63.0741 12.7713 62.9959 13.0861 62.9176 13.3222C62.7611 13.5583 62.6047 13.7157 62.3699 13.8732C62.1352 14.0306 61.9004 14.0306 61.6657 14.0306C61.1962 14.0306 60.8832 13.8732 60.6485 13.637C60.4138 13.3222 60.2573 12.9287 60.2573 12.4565V12.3778ZM60.805 12.3778C60.805 12.7713 60.8832 13.0861 61.0397 13.2435C61.1962 13.4009 61.431 13.5583 61.6657 13.5583C61.9004 13.5583 62.1352 13.4796 62.2917 13.2435C62.4482 13.0074 62.5264 12.7713 62.5264 12.3778C62.5264 11.9843 62.4482 11.6695 62.2917 11.512C62.1352 11.3546 61.9004 11.1972 61.6657 11.1972C61.431 11.1972 61.1962 11.2759 61.0397 11.512C60.8832 11.6695 60.805 11.9843 60.805 12.3778Z" fill="#666666"/>
</g>
<defs>
<clipPath id="clip0">
<rect x="0.831665" y="0.178711" width="114" height="34" fill="white"/>
</clipPath>
</defs>
</svg>
