<svg width="115" height="35" fill="none" xmlns="http://www.w3.org/2000/svg"><g clip-path="url(#clip0)"><path d="M1.416 20.09c0-.865.548-1.416 1.33-1.416.861 0 1.33.55 1.33 1.416v.394h.079c.782-1.18 2.034-1.81 3.443-1.81 1.017 0 2.19.472 2.738 1.81.783-1.102 1.8-1.81 3.365-1.81 1.956 0 3.6.944 3.6 3.463v5.903c0 .787-.314 1.416-1.41 1.416-1.095 0-1.408-.708-1.408-1.416v-5.195c0-1.023-.47-1.889-1.565-1.889s-2.112.866-2.112 2.204v4.8c0 .788-.313 1.418-1.409 1.418-1.095 0-1.408-.709-1.408-1.417v-5.195c0-1.023-.47-1.888-1.565-1.888-1.096 0-2.113.865-2.113 2.203v4.801c0 .787-.313 1.417-1.408 1.417-1.096 0-1.409-.709-1.409-1.417v-7.949l-.078.157zM26.22 24.42c-.313.314-.939.393-1.252.471l-1.017.158c-1.174.157-1.878.55-1.878 1.416 0 .63.626 1.181 1.565 1.181 1.565 0 2.504-1.023 2.504-2.125V24.42h.078zm2.895 2.045c0 1.181.313 1.496.313 1.968 0 .63-.626 1.102-1.33 1.102-1.252 0-1.643-.787-1.721-1.653-1.096 1.26-2.426 1.653-3.913 1.653-1.643 0-3.208-1.102-3.208-2.912 0-2.361 1.8-3.07 3.99-3.306l1.722-.236c.704-.078 1.252-.236 1.252-1.102 0-.865-.86-1.18-1.8-1.18-2.112 0-2.19 1.574-3.286 1.574-.704 0-1.252-.551-1.252-1.102 0-1.18 1.643-2.597 4.538-2.597 2.74 0 4.617.866 4.617 2.99v4.801h.078zM36.236 26.859c1.252 0 2.269-.866 2.269-2.912 0-2.125-.783-2.99-2.113-2.99-1.878 0-2.425 1.337-2.425 3.147 0 1.338.626 2.755 2.269 2.755zm5.008 1.574c0 3.463-2.113 5.037-5.087 5.037-2.19 0-4.303-1.023-4.303-2.361 0-.708.548-1.26 1.174-1.26 1.173 0 1.408 1.496 3.051 1.496 1.722 0 2.426-.866 2.426-3.148v-.63h-.078c-.548.787-1.644 1.417-2.739 1.417-3.052 0-4.617-1.968-4.617-4.8 0-3.7 2.113-5.51 4.46-5.51 1.409 0 2.504.63 3.052 1.731v-.393c0-.866.47-1.338 1.33-1.338.861 0 1.33.472 1.33 1.338v8.422zM50.163 24.42c-.312.314-.938.393-1.251.471l-1.018.158c-1.173.157-1.877.55-1.877 1.416 0 .63.625 1.181 1.564 1.181 1.565 0 2.504-1.023 2.504-2.125V24.42h.078zm2.896 2.045c0 1.181.313 1.496.313 1.968 0 .63-.626 1.102-1.33 1.102-1.253 0-1.644-.787-1.722-1.653-1.095 1.26-2.426 1.653-3.912 1.653-1.643 0-3.208-1.102-3.208-2.912 0-2.361 1.8-3.07 3.99-3.306l1.722-.236c.704-.078 1.252-.236 1.252-1.102 0-.865-.861-1.18-1.8-1.18-2.113 0-2.191 1.574-3.286 1.574-.705 0-1.252-.551-1.252-1.102 0-1.18 1.643-2.597 4.538-2.597 2.739 0 4.616.866 4.616 2.99v4.801h.079zM55.484 20.09c0-.865.548-1.416 1.33-1.416.861 0 1.33.55 1.33 1.416v.394h.079c.782-1.18 2.034-1.81 3.443-1.81 1.017 0 2.19.472 2.738 1.81.783-1.102 1.8-1.81 3.365-1.81 1.956 0 3.6.944 3.6 3.463v5.903c0 .787-.314 1.416-1.41 1.416-1.095 0-1.408-.708-1.408-1.416v-5.195c0-1.023-.47-1.889-1.565-1.889s-2.112.866-2.112 2.204v4.8c0 .788-.313 1.418-1.409 1.418-1.095 0-1.408-.709-1.408-1.417v-5.195c0-1.023-.47-1.888-1.565-1.888s-2.113.865-2.113 2.203v4.801c0 .787-.313 1.417-1.408 1.417s-1.408-.709-1.408-1.417v-7.949l-.079.157zM78.567 27.331c1.721 0 2.426-1.574 2.426-3.305 0-1.89-.783-3.306-2.426-3.306-1.643 0-2.426 1.417-2.426 3.306 0 1.731.704 3.305 2.426 3.305zm0-8.736c3.443 0 5.32 2.361 5.32 5.43 0 2.913-1.408 5.431-5.32 5.431-3.912 0-5.32-2.518-5.32-5.43 0-3.07 1.877-5.43 5.32-5.43zM90.695 20.956c-1.721 0-2.27 1.732-2.27 3.227 0 1.653.627 3.148 2.27 3.148 1.565-.078 2.27-1.416 2.27-3.148 0-1.338-.47-3.227-2.27-3.227zm-5.008-4.722c0-.944.548-1.417 1.409-1.417.86 0 1.408.473 1.408 1.417v3.935h.078c.548-.944 1.565-1.495 2.817-1.495 3.052 0 4.382 2.597 4.382 5.352 0 3.699-2.113 5.509-4.46 5.509-1.409 0-2.582-.63-3.052-1.81h-.078v.472c0 .866-.47 1.338-1.33 1.338-.86 0-1.33-.472-1.33-1.338V16.313l.156-.079zM97.815 20.09c0-.787.313-1.416 1.409-1.416 1.095 0 1.408.708 1.408 1.416v7.95c0 .787-.313 1.416-1.408 1.416-1.096 0-1.409-.708-1.409-1.416v-7.95z" fill="#898989"/><path d="M111.196 10.725L89.913 2.461l.234-.63 21.283 8.343-.234.551z" fill="#95C12B"/><path d="M99.302 16.47l-.313-.55 12.207-5.746.234.55-12.128 5.746z" fill="#95C12B"/><path d="M110.648 13.322c-1.565-.393-2.582-1.968-2.191-3.542.391-1.574 1.956-2.597 3.521-2.203 1.565.393 2.582 1.967 2.191 3.541-.391 1.574-1.956 2.598-3.521 2.204zM98.833 17.887c-.94-.236-1.487-1.18-1.252-2.046.234-.945 1.173-1.496 2.034-1.26.939.237 1.487 1.18 1.252 2.047-.235.944-1.174 1.495-2.034 1.259zM89.678 3.405a1.244 1.244 0 01-.94-1.495 1.236 1.236 0 011.488-.944c.704.157 1.095.865.939 1.495a1.236 1.236 0 01-1.487.944z" fill="#95C12B"/><path d="M4.39 9.702h.547v2.44c0 .393-.078.787-.156 1.023a1.05 1.05 0 01-.548.63c-.235.157-.548.236-1.017.236-.391 0-.704-.08-.94-.237-.234-.157-.469-.314-.547-.63a3.668 3.668 0 01-.156-1.101v-2.44h.547v2.44c0 .393 0 .63.079.787.078.157.156.315.313.393.156.08.39.158.626.158.39 0 .704-.079.86-.315.157-.157.235-.55.235-1.102v-2.44l.157.158zM5.876 13.952v-3.07h.47v.473c.078-.158.234-.237.39-.394.157-.079.314-.157.549-.157.234 0 .39.078.547.157.157.079.235.236.313.394.235-.394.548-.551.94-.551.312 0 .547.078.704.236.156.157.234.393.234.787v2.125h-.547v-1.968c0-.236 0-.393-.079-.472 0-.079-.078-.157-.156-.236-.078-.079-.157-.079-.313-.079a.708.708 0 00-.548.236c-.156.158-.235.394-.235.709v1.81h-.547v-1.968c0-.236-.079-.393-.157-.55a.596.596 0 00-.391-.158c-.157 0-.313 0-.391.079-.157.078-.235.157-.235.314-.078.158-.078.394-.078.63v1.574h-.548l.078.079zM12.762 13.558c-.157.158-.391.315-.548.315-.156.079-.391.079-.548.079-.313 0-.626-.079-.782-.236a.897.897 0 01-.235-.63c0-.157 0-.315.079-.393.078-.158.156-.236.234-.315a.596.596 0 01.391-.158c.079 0 .235-.078.47-.078.391-.079.704-.079.939-.158v-.157c0-.236-.078-.394-.157-.472-.156-.158-.313-.158-.626-.158-.234 0-.39.079-.547.158-.157.078-.235.236-.235.472l-.548-.079c.079-.236.157-.393.235-.55.078-.158.235-.237.47-.316.234-.078.469-.078.704-.078.234 0 .47 0 .626.078.156.08.313.158.39.236a.603.603 0 01.157.394v2.125c0 .157.079.236.157.394h-.548c-.078-.08-.078-.237-.078-.394v-.079zm-.078-1.18c-.157.079-.47.157-.861.157-.235 0-.391.079-.47.079-.078 0-.156.079-.234.157-.079.079-.079.158-.079.236 0 .158.079.236.157.315.078.079.235.158.47.158.234 0 .39-.08.547-.158.157-.079.235-.236.313-.393.078-.158.078-.315.078-.551v-.158l.079.158zM17.848 12.929l.548.078c-.079.315-.235.551-.47.709-.235.157-.548.236-.86.236-.47 0-.783-.158-1.096-.394-.235-.315-.391-.63-.391-1.18 0-.551.156-.945.391-1.18.235-.316.626-.394 1.017-.394.391 0 .783.157 1.017.393.235.315.392.709.392 1.18v.158h-2.27c0 .315.079.63.313.787a.886.886 0 00.626.236c.157 0 .392-.078.47-.157.156-.079.235-.236.313-.472zm-1.721-.866h1.72c0-.236-.077-.472-.234-.551-.156-.236-.391-.315-.626-.315a.886.886 0 00-.626.236c-.156.158-.235.394-.235.63zM19.021 13.952v-3.07h.47v.473c.078-.158.235-.237.391-.394.157-.079.313-.157.548-.157.235 0 .391.078.548.157.156.079.234.236.313.394.234-.394.547-.551.939-.551.313 0 .547.078.704.236.156.157.235.393.235.787v2.125h-.548v-1.968c0-.236 0-.393-.078-.472 0-.079-.079-.157-.157-.236-.078-.079-.156-.079-.313-.079a.708.708 0 00-.548.236c-.156.158-.234.394-.234.709v1.81h-.548v-1.968c0-.236-.078-.393-.156-.55a.596.596 0 00-.392-.158c-.156 0-.313 0-.391.079-.156.078-.235.157-.235.314-.078.158-.078.394-.078.63v1.574h-.548l.078.079zM23.951 15.132v-4.25h.47v.394c.078-.158.234-.236.39-.315.157-.079.314-.157.549-.157.234 0 .469.078.704.236.234.157.313.315.47.55.077.237.156.552.156.788 0 .315-.079.63-.157.865a1.106 1.106 0 01-.47.551c-.234.158-.469.237-.703.237-.157 0-.313 0-.47-.08a.613.613 0 01-.313-.314v1.495h-.626zm.47-2.675c0 .393.078.708.234.865.157.158.392.315.548.315.235 0 .391-.079.626-.315.156-.236.235-.472.235-.944 0-.394-.079-.709-.235-.866-.157-.157-.313-.315-.548-.315-.234 0-.391.079-.547.315-.157.236-.235.472-.235.944h-.078zM27.237 13.952v-3.07h.47v.473c.156-.237.235-.394.313-.473.078-.078.235-.078.313-.078.156 0 .391.078.548.157l-.157.472c-.156-.078-.235-.078-.391-.078-.078 0-.235 0-.313.078-.078.079-.157.158-.157.315-.078.158-.078.394-.078.63v1.574h-.548zM31.306 12.929l.548.078c-.078.315-.235.551-.47.709-.234.157-.547.236-.86.236-.47 0-.783-.158-1.096-.394-.234-.315-.39-.63-.39-1.18 0-.551.156-.945.39-1.18.235-.316.626-.394 1.017-.394.392 0 .783.157 1.018.393.235.315.391.709.391 1.18v.158h-2.27c0 .315.08.63.314.787a.886.886 0 00.626.236c.156 0 .391-.078.47-.157.156-.079.234-.236.312-.472zm-1.721-.866h1.721c0-.236-.078-.472-.235-.551-.156-.236-.39-.315-.626-.315a.885.885 0 00-.625.236.897.897 0 00-.235.63zM32.245 13.008l.548-.08c0 .237.078.394.235.473.156.079.313.157.547.157.235 0 .392-.078.548-.157.078-.079.157-.236.157-.315 0-.079-.079-.236-.157-.315-.078-.078-.235-.078-.548-.157-.39-.079-.626-.157-.782-.236a.613.613 0 01-.313-.315c-.078-.157-.078-.236-.078-.394 0-.157 0-.236.078-.393.078-.079.156-.236.235-.315.078-.079.156-.079.313-.157.156-.079.313-.079.47-.079.234 0 .469 0 .625.079.157.079.313.157.391.315.079.157.157.314.157.472l-.548.079a.433.433 0 00-.235-.394c-.078-.079-.234-.157-.47-.157-.234 0-.39.078-.547.157-.078.079-.156.157-.156.315 0 .079 0 .157.078.157.078.079.078.079.235.158.078 0 .234.078.47.157.39.079.625.157.782.236.156.079.234.158.313.236.078.158.156.236.156.473 0 .157-.078.314-.156.472-.079.157-.235.236-.47.393a1.467 1.467 0 01-.626.158c-.391 0-.704-.08-.939-.237-.235-.157-.313-.393-.391-.708l.078-.079zM37.41 13.558c-.157.158-.392.315-.548.315-.157.079-.392.079-.548.079-.313 0-.626-.079-.782-.236a.897.897 0 01-.235-.63c0-.157 0-.315.078-.393.078-.158.157-.236.235-.315A.596.596 0 0136 12.22c.078 0 .235-.078.47-.078.39-.079.704-.079.938-.158v-.157c0-.236-.078-.394-.156-.472-.157-.158-.313-.158-.626-.158-.235 0-.391.079-.548.158-.156.078-.235.236-.235.472l-.547-.079c.078-.236.156-.393.235-.55.078-.158.234-.237.469-.316.235-.078.47-.078.704-.078.235 0 .47 0 .626.078.157.08.313.158.391.236a.603.603 0 01.157.394v2.125c0 .157.078.236.156.394h-.547c-.079-.08-.079-.237-.079-.394v-.079zm-.079-1.18c-.156.079-.47.157-.86.157-.235 0-.392.079-.47.079-.078 0-.157.079-.235.157-.078.079-.078.158-.078.236 0 .158.078.236.156.315.079.079.235.158.47.158s.391-.08.548-.158c.156-.079.234-.236.313-.393.078-.158.078-.315.078-.551v-.158l.078.158zM42.339 13.952v-.394c-.157.315-.47.472-.86.472-.236 0-.47-.078-.705-.236-.235-.157-.391-.315-.47-.55a2.845 2.845 0 01-.156-.866c0-.315.078-.551.156-.866.079-.236.235-.472.47-.551.235-.158.47-.236.704-.236.157 0 .313.079.47.157a.613.613 0 01.313.315V9.702h.547v4.25h-.47zm-1.643-1.574c0 .393.078.708.235.865.156.158.39.315.625.315s.392-.079.548-.315c.157-.157.235-.472.235-.865 0-.394-.078-.709-.235-.945-.156-.236-.391-.315-.626-.315s-.391.079-.547.315c-.157.158-.235.472-.235.866v.079zM43.434 12.378c0-.551.157-1.023.47-1.26.235-.236.548-.314.939-.314.391 0 .782.157 1.017.393.235.315.391.63.391 1.18 0 .394-.078.71-.156.945a1.835 1.835 0 01-.548.551c-.235.158-.47.158-.704.158-.47 0-.783-.158-1.017-.394a1.94 1.94 0 01-.392-1.18v-.08zm.548 0c0 .393.078.708.235.865.156.158.391.315.626.315s.47-.078.626-.315c.156-.236.234-.472.234-.865 0-.394-.078-.709-.234-.866-.157-.157-.391-.315-.626-.315s-.47.079-.626.315c-.157.157-.235.472-.235.866zM48.52 14.188l.47.079c0 .157.078.236.156.315.157.078.313.157.548.157.235 0 .391-.079.548-.157a.433.433 0 00.235-.394c0-.079.078-.315 0-.708-.235.236-.548.393-.861.393-.391 0-.783-.157-1.017-.472-.235-.315-.313-.708-.313-1.102 0-.315.078-.55.156-.787.078-.236.235-.472.47-.55.234-.158.47-.237.704-.237.391 0 .626.158.86.472v-.393h.47v2.676c0 .472-.078.787-.157 1.023a.707.707 0 01-.469.472c-.235.079-.47.158-.782.158-.392 0-.626-.08-.861-.237-.235-.157-.313-.393-.313-.708h.156zm.392-1.889c0 .394.078.709.234.866.157.157.392.315.626.315.235 0 .47-.079.626-.315.157-.157.235-.472.235-.866 0-.393-.078-.63-.235-.866-.156-.157-.39-.314-.626-.314-.234 0-.39.078-.626.314-.156.158-.234.473-.234.866zM51.885 13.952v-3.07h.47v.473c.156-.237.234-.394.312-.473.079-.078.235-.078.313-.078.157 0 .392.078.548.157l-.156.472c-.157-.078-.235-.078-.392-.078-.078 0-.234 0-.313.078-.078.079-.156.158-.156.315-.078.158-.078.394-.078.63v1.574h-.548zM55.876 13.952v-.473c-.235.315-.548.551-.94.551-.156 0-.312 0-.469-.078-.156-.079-.235-.158-.313-.236a.603.603 0 01-.156-.394V10.96h.547v2.283c0 .158.079.236.235.315a.596.596 0 00.391.158c.157 0 .313-.08.47-.158a.613.613 0 00.313-.315c.078-.157.078-.315.078-.63v-1.652h.548v3.07h-.47l-.234-.08zM57.127 15.132v-4.25h.47v.394c.078-.158.235-.236.391-.315.157-.079.313-.157.548-.157.235 0 .47.078.704.236.235.157.313.315.47.55.078.237.156.552.156.788 0 .315-.078.63-.156.865a1.106 1.106 0 01-.47.551c-.235.158-.47.237-.704.237-.157 0-.313 0-.47-.08a.613.613 0 01-.313-.314v1.495h-.626zm.47-2.675c0 .393.078.708.235.865.156.158.39.315.547.315.235 0 .392-.079.626-.315.157-.236.235-.472.235-.944 0-.394-.078-.709-.235-.866-.156-.157-.313-.315-.547-.315-.235 0-.392.079-.548.315-.157.236-.235.472-.235.944h-.078zM60.257 12.378c0-.551.157-1.023.47-1.26.235-.236.548-.314.939-.314.39 0 .782.157 1.017.393.235.315.391.63.391 1.18 0 .394-.078.71-.156.945a1.834 1.834 0 01-.548.551c-.235.158-.47.158-.704.158-.47 0-.783-.158-1.017-.394a1.94 1.94 0 01-.392-1.18v-.08zm.548 0c0 .393.078.708.235.865.156.158.391.315.626.315.234 0 .47-.078.626-.315.156-.236.234-.472.234-.865 0-.394-.078-.709-.234-.866-.157-.157-.392-.315-.626-.315-.235 0-.47.079-.626.315-.157.157-.235.472-.235.866z" fill="#666"/></g><defs><clipPath id="clip0"><path fill="#fff" d="M.832.179h114v34h-114z"/></clipPath></defs></svg>