<svg width="1920" height="300" viewBox="0 0 1920 300" fill="none" xmlns="http://www.w3.org/2000/svg">
<path fill-rule="evenodd" clip-rule="evenodd" d="M0 299.342V245.789C20.4256 245.908 40.8511 244.687 61.2767 241.721C153.645 228.802 246.014 180.21 338.383 131.619C395.801 101.413 453.22 71.2075 510.638 49.5706C660.425 -7.40717 810.213 -7.40716 960 13.9428C1024.25 23.101 1088.5 36.1875 1152.75 49.274L1152.76 49.2743C1238.29 66.6958 1323.83 84.1174 1409.36 92.2706C1559.15 106.015 1708.94 92.671 1858.72 70.9206C1877.59 68.2816 1896.46 65.5092 1915.33 62.7368L1915.34 62.7348C1916.89 62.5066 1918.45 62.2785 1920 62.0505V168.913C1773.25 183.112 1626.5 190.082 1479.75 179.669C1380.82 172.377 1281.89 156.794 1182.95 141.212L1182.95 141.211L1182.95 141.211C1108.63 129.506 1034.32 117.801 960 109.61C786.749 90.5132 613.498 90.5132 440.247 141.477C373.834 160.83 307.421 187.847 241.008 214.864L241.008 214.864C160.672 247.545 80.3359 280.226 0 299.342Z" fill="#00CBA9"/>
</svg>
