<svg width="1920" height="300" fill="none" xmlns="http://www.w3.org/2000/svg"><path fill-rule="evenodd" clip-rule="evenodd" d="M0 299.342v-53.553c20.426.119 40.851-1.102 61.277-4.068 92.368-12.919 184.737-61.511 277.106-110.102 57.418-30.206 114.837-60.412 172.255-82.048C660.425-7.407 810.213-7.407 960 13.943c64.25 9.158 128.5 22.245 192.75 35.331h.01c85.53 17.422 171.07 34.843 256.6 42.997 149.79 13.744 299.58.4 449.36-21.35 18.87-2.64 37.74-5.412 56.61-8.184l.01-.002 4.66-.684v106.862c-146.75 14.199-293.5 21.169-440.25 10.756-98.93-7.292-197.86-22.875-296.8-38.457v-.001c-74.32-11.705-148.63-23.41-222.95-31.601-173.251-19.097-346.502-19.097-519.753 31.867-66.413 19.353-132.826 46.37-199.239 73.387C160.672 247.545 80.336 280.226 0 299.342z" fill="#00CBA9"/></svg>