<svg width="1920" height="317" viewBox="0 0 1920 317" fill="none" xmlns="http://www.w3.org/2000/svg">
<path fill-rule="evenodd" clip-rule="evenodd" d="M-797.523 276.342L-762.553 263.071C-687.659 234.115 -537.872 178.071 -388.085 184.743C-326.563 187.483 -265.041 201.254 -203.519 215.024C-115.254 234.781 -26.9886 254.537 61.2767 241.721C153.645 228.802 246.014 180.21 338.383 131.619C395.801 101.413 453.22 71.2075 510.638 49.5706C660.425 -7.40717 810.213 -7.40716 960 13.9428C1024.25 23.101 1088.5 36.1876 1152.76 49.2743C1238.29 66.6958 1323.83 84.1174 1409.36 92.2706C1559.15 106.015 1708.94 92.671 1858.72 70.9206C1877.6 68.281 1896.47 65.5079 1915.34 62.7348C2046.26 43.499 2177.17 24.2632 2308.08 49.5706C2408.91 68.7022 2509.73 113.65 2587.72 154.014C2565.03 149.082 2542.15 144.835 2519.26 141.477C2367.84 118.841 2216.42 136.046 2064.99 153.251C2043.17 155.732 2021.34 158.212 1999.51 160.573C1826.26 180.027 1653 191.963 1479.75 179.669C1380.82 172.377 1281.88 156.794 1182.95 141.211C1108.63 129.506 1034.32 117.801 960 109.61C786.749 90.5132 613.498 90.5132 440.247 141.477C373.834 160.83 307.421 187.847 241.008 214.864C134.17 258.326 27.3319 301.789 -79.5062 313.344C-181.598 324.808 -283.69 307.137 -385.781 289.466C-456.941 277.149 -528.1 264.832 -599.259 262.381C-667.079 260.044 -734.899 266.304 -797.523 276.342Z" fill="#00CBA9"/>
</svg>
