<svg width="41" height="28" fill="none" xmlns="http://www.w3.org/2000/svg"><path d="M40.563 12.672C36.767 5.22 29.173.157 20.595.157 11.946.157 4.353 5.219.555 12.672c-.14.281-.21.703-.21 1.055 0 .281.07.703.21.984 3.798 7.453 11.391 12.446 20.04 12.446 8.578 0 16.172-4.993 19.968-12.446.141-.281.211-.703.211-1.055 0-.28-.07-.703-.21-.984zm-19.968 11.11c-5.625 0-10.125-4.5-10.125-10.126 0-5.554 4.5-10.124 10.125-10.124 5.554 0 10.125 4.57 10.125 10.124v.07c0 5.556-4.57 10.056-10.125 10.056zm0-16.875c-.563.07-1.336.14-1.828.28.351.493.703 1.407.703 2.04 0 1.828-1.547 3.304-3.375 3.304-.633 0-1.547-.28-2.04-.632-.14.492-.21 1.265-.21 1.758a6.752 6.752 0 006.75 6.75 6.752 6.752 0 006.75-6.75 6.752 6.752 0 00-6.75-6.75z" fill="#FDAA08"/></svg>