<svg width="36" height="37" fill="none" xmlns="http://www.w3.org/2000/svg"><path d="M24.42 7.617c-3.796 0-6.89-2.46-11.601-2.46-1.758 0-3.305.351-4.781.914.14-.422.281-1.055.281-1.407 0-.07-.07-.21-.07-.28C8.179 2.413 6.49.796 4.522.726 2.272.587.444 2.414.444 4.594c0 1.406.633 2.531 1.687 3.234V34.97c0 .984.704 1.688 1.688 1.688h1.125c.914 0 1.687-.704 1.687-1.688v-6.61c1.97-.843 4.43-1.546 8.016-1.546 3.797 0 6.89 2.46 11.602 2.46 3.375 0 6.117-1.195 8.648-2.882.563-.422.985-1.125.985-1.828V7.407c0-1.618-1.758-2.672-3.235-2.04-2.39 1.125-5.344 2.25-8.226 2.25z" fill="#FDAA08"/></svg>