<svg width="33" height="37" fill="none" xmlns="http://www.w3.org/2000/svg"><path d="M32.463 25.969V2.344A1.71 1.71 0 0030.776.657H7.713a6.752 6.752 0 00-6.75 6.75v22.5a6.752 6.752 0 006.75 6.75h23.063c.914 0 1.687-.704 1.687-1.688v-1.125c0-.492-.28-.984-.632-1.266-.352-1.125-.352-4.218 0-5.273a1.74 1.74 0 00.632-1.336zm-22.5-15.89c0-.212.141-.422.422-.422h14.906c.211 0 .422.21.422.421v1.407c0 .28-.21.421-.422.421H10.385c-.281 0-.422-.14-.422-.421v-1.407zm0 4.5c0-.212.141-.423.422-.423h14.906c.211 0 .422.211.422.422v1.407c0 .28-.21.422-.422.422H10.385c-.281 0-.422-.141-.422-.422v-1.407zm17.79 17.578H7.712a2.221 2.221 0 01-2.25-2.25c0-1.196.985-2.25 2.25-2.25h20.04c-.141 1.265-.141 3.304 0 4.5z" fill="#FDAA08"/></svg>