<svg width="25" height="21" fill="none" xmlns="http://www.w3.org/2000/svg"><path d="M21.16.485c2.07 2.172 3.108 4.687 3.108 7.546 0 2.858-1.037 5.323-3.108 7.396l-1.755-1.706c1.471-1.706 2.208-3.653 2.208-5.842 0-2.188-.737-4.087-2.208-5.69L21.16.485zm-3.512 3.56c1.068 1.17 1.604 2.49 1.604 3.962 0 1.47-.536 2.74-1.606 3.81l-1.805-1.804c.468-.636.701-1.33.701-2.08 0-.752-.233-1.446-.7-2.082l1.806-1.807zM9.323 14.373c1.805 0 3.686.393 5.64 1.178 1.956.785 2.933 1.815 2.933 3.084v2.158H.748v-2.158c0-1.27.976-2.299 2.932-3.084 1.956-.784 3.838-1.178 5.643-1.178zM5.06 7.956c0-1.17.418-2.174 1.253-3.01.835-.835 1.839-1.252 3.01-1.252 1.171 0 2.174.417 3.01 1.253.835.835 1.252 1.838 1.252 3.01 0 1.17-.417 2.174-1.253 3.009-.835.835-1.838 1.253-3.01 1.253-1.17 0-2.174-.418-3.009-1.253-.835-.838-1.253-1.84-1.253-3.01z" fill="#000"/></svg>