<svg width="25" height="25" fill="none" xmlns="http://www.w3.org/2000/svg"><g clip-path="url(#clip0)"><path d="M8.508 14.64l-4.5 4.5 1.5 1.5 3.5-3.5h2l-2.5-2.5zm6.5-13.5c-1.1 0-2 .9-2 2s.9 2 2 2 2-.9 2-2-.9-2-2-2zm6 20.01l-3 2.99-2.99-3.01v-1.49l-7.1-7.09c-.31.05-.61.07-.91.07v-2.16c1.66.03 3.61-.87 4.67-2.04l1.4-1.55c.19-.21.43-.38.69-.5.29-.14.62-.23.96-.23h.03c1.24.01 2.25 1.02 2.25 2.26v5.75c0 .84-.35 1.61-.92 2.16l-3.58-3.58v-2.27c-.63.52-1.43 1.02-2.29 1.39l6.29 6.29h1.5l3 3.01z" fill="#000"/></g><defs><clipPath id="clip0"><path fill="#fff" d="M.008.139h24v24h-24z"/></clipPath></defs></svg>